<svg width="280" height="197" viewBox="0 0 280 197" fill="none" xmlns="http://www.w3.org/2000/svg">
<g clip-path="url(#clip0_41_337)">
<path d="M143.002 196.582C151.423 196.582 158.25 189.767 158.25 181.359C158.25 172.951 151.423 166.135 143.002 166.135C134.58 166.135 127.753 172.951 127.753 181.359C127.753 189.767 134.58 196.582 143.002 196.582Z" fill="#3A8ACA"/>
<path d="M234.097 195.727C242.628 193.169 251.697 190.502 258.462 184.422C264.508 178.988 268.589 170.691 266.085 162.542C263.585 154.41 256.099 148.988 248.37 146.291C243.986 144.762 239.399 143.913 234.814 143.246C229.831 142.522 224.825 141.928 219.821 141.357C199.561 139.043 179.225 137.63 158.813 137.117C148.741 136.864 138.67 136.87 128.597 137.016C119.6 137.146 110.126 137.143 101.78 133.325C95.2897 130.357 89.3993 124.956 87.591 117.859C85.5035 109.667 89.3538 101.324 94.877 95.3904C97.7884 92.2629 101.191 89.6307 104.701 87.2103C108.509 84.5845 112.45 82.1446 116.476 79.8672C124.405 75.3837 132.696 71.5681 141.26 68.4599C145.485 66.9262 149.773 65.6029 154.098 64.3822C157.75 63.3514 161.413 62.3191 164.943 60.9147C171.766 58.1997 178.256 53.6008 179.991 46.0613C181.635 38.9157 178.863 31.1585 174.002 25.8502C168.379 19.7088 159.901 17.0166 151.773 16.581C142.647 16.092 133.732 18.3721 125.155 21.2659C116.007 24.3523 107.056 27.9011 97.7152 30.4011C88.452 32.8777 79.0096 34.63 69.4738 35.6421C64.8057 36.1384 59.9964 36.6988 55.3006 36.3188C51.365 36.0004 47.4495 34.8449 44.549 32.0564C42.062 29.6653 40.5805 26.3793 41.0899 22.9115C41.1824 22.2816 42.1408 22.5494 42.0488 23.1754C41.4288 27.3967 44.3029 31.2865 47.8446 33.279C51.9379 35.5819 56.9188 35.585 61.476 35.3216C71.3573 34.7258 81.1717 33.3093 90.8175 31.087C100.296 28.9257 109.435 25.836 118.564 22.5356C127.235 19.401 136.099 16.3417 145.362 15.6627C153.399 15.0736 161.854 16.2426 168.856 20.436C175.01 24.1214 179.535 30.2675 180.977 37.3203C182.386 44.2121 180.434 51.1489 175.209 55.9583C169.798 60.9378 162.38 63.0667 155.466 65.0275C146.698 67.5143 138.117 70.4213 129.812 74.1957C121.393 78.0108 113.319 82.5425 105.679 87.7407C98.305 92.7719 91.0273 99.1023 88.695 108.078C87.6086 112.259 87.8092 116.693 89.627 120.642C91.2434 124.153 93.9054 127.107 97.0065 129.385C104.406 134.821 113.731 135.937 122.668 136.048C132.706 136.173 142.745 135.834 152.786 135.999C173.249 136.334 193.671 137.578 214.051 139.73C219.158 140.269 224.258 140.866 229.352 141.519C233.933 142.107 238.531 142.691 243.035 143.735C251.045 145.591 258.838 149.159 263.817 155.939C266.026 158.878 267.395 162.361 267.777 166.015C268.125 169.829 267.19 173.65 265.463 177.043C261.64 184.552 254.48 189.328 246.875 192.466C242.803 194.147 238.578 195.42 234.361 196.685C233.747 196.869 233.484 195.911 234.097 195.727Z" fill="#F2F2F2"/>
<path d="M41.732 30.9436C46.1258 30.9436 49.6877 27.3875 49.6877 23.0008C49.6877 18.6142 46.1258 15.0581 41.732 15.0581C37.3382 15.0581 33.7763 18.6142 33.7763 23.0008C33.7763 27.3875 37.3382 30.9436 41.732 30.9436Z" fill="#F2F2F2"/>
<path d="M96.9248 46.0017C101.319 46.0017 104.881 42.4456 104.881 38.0589C104.881 33.6723 101.319 30.1162 96.9248 30.1162C92.531 30.1162 88.9691 33.6723 88.9691 38.0589C88.9691 42.4456 92.531 46.0017 96.9248 46.0017Z" fill="#F2F2F2"/>
<path d="M143.665 15.8855C148.058 15.8855 151.62 12.3294 151.62 7.94273C151.62 3.55608 148.058 0 143.665 0C139.271 0 135.709 3.55608 135.709 7.94273C135.709 12.3294 139.271 15.8855 143.665 15.8855Z" fill="#F2F2F2"/>
<path d="M172.836 49.642C177.229 49.642 180.791 46.086 180.791 41.6993C180.791 37.3127 177.229 33.7566 172.836 33.7566C168.442 33.7566 164.88 37.3127 164.88 41.6993C164.88 46.086 168.442 49.642 172.836 49.642Z" fill="#F2F2F2"/>
<path d="M133.389 88.6938C137.782 88.6938 141.344 85.1377 141.344 80.7511C141.344 76.3644 137.782 72.8083 133.389 72.8083C128.995 72.8083 125.433 76.3644 125.433 80.7511C125.433 85.1377 128.995 88.6938 133.389 88.6938Z" fill="#F2F2F2"/>
<path d="M83.3338 107.558C87.7276 107.558 91.2895 104.002 91.2895 99.6151C91.2895 95.2284 87.7276 91.6724 83.3338 91.6724C78.9399 91.6724 75.3781 95.2284 75.3781 99.6151C75.3781 104.002 78.9399 107.558 83.3338 107.558Z" fill="#F2F2F2"/>
<path d="M136.372 137.012C140.766 137.012 144.328 133.456 144.328 129.069C144.328 124.683 140.766 121.127 136.372 121.127C131.978 121.127 128.416 124.683 128.416 129.069C128.416 133.456 131.978 137.012 136.372 137.012Z" fill="#F2F2F2"/>
<path d="M193.388 153.559C197.782 153.559 201.344 150.003 201.344 145.617C201.344 141.23 197.782 137.674 193.388 137.674C188.994 137.674 185.432 141.23 185.432 145.617C185.432 150.003 188.994 153.559 193.388 153.559Z" fill="#F2F2F2"/>
<path d="M260.017 149.919C264.411 149.919 267.973 146.363 267.973 141.976C267.973 137.59 264.411 134.034 260.017 134.034C255.623 134.034 252.061 137.59 252.061 141.976C252.061 146.363 255.623 149.919 260.017 149.919Z" fill="#F2F2F2"/>
<path d="M141.368 22.5055C117.537 22.6736 98.0241 42.0082 97.6856 65.7988C97.6825 66.0185 97.681 67.5629 97.6812 69.5829C97.6814 72.5447 98.8599 75.3852 100.958 77.4796C103.055 79.574 105.9 80.7507 108.867 80.7511C110.338 80.7507 111.794 80.4611 113.152 79.8988C114.511 79.3364 115.745 78.5123 116.784 77.4735C117.823 76.4348 118.647 75.2018 119.209 73.8449C119.771 72.4881 120.06 71.034 120.058 69.5658C120.057 68.1917 120.057 67.2406 120.057 67.1822C120.056 63.5054 121.014 59.8918 122.836 56.6967C124.659 53.5016 127.283 50.8352 130.45 48.9597C133.618 47.0843 137.22 46.0643 140.902 46.0003C144.585 45.9363 148.22 46.8304 151.451 48.5946C154.683 50.3588 157.398 52.9323 159.331 56.0621C161.264 59.1919 162.347 62.7701 162.475 66.4447C162.602 70.1193 161.769 73.7638 160.058 77.0195C158.347 80.2753 155.816 83.0303 152.715 85.0135L152.719 85.0182C152.719 85.0182 136.798 95.2509 131.944 109.288L131.948 109.289C131.095 112.165 130.662 115.149 130.664 118.148C130.664 119.381 130.737 130.169 130.877 138.924C130.926 141.945 132.163 144.826 134.32 146.945C136.478 149.064 139.383 150.251 142.41 150.25C143.93 150.25 145.436 149.95 146.84 149.366C148.244 148.783 149.519 147.929 150.591 146.852C151.663 145.775 152.511 144.497 153.086 143.092C153.661 141.686 153.953 140.181 153.943 138.663C153.895 130.645 153.868 121.308 153.868 120.63C153.868 112.011 162.197 103.423 169.038 97.8222C176.917 91.373 182.586 82.5844 184.863 72.6705C185.367 70.6294 185.644 68.5393 185.691 66.4376C185.691 60.6415 184.542 54.9027 182.311 49.5518C180.08 44.2009 176.81 39.3438 172.69 35.2601C168.57 31.1765 163.681 27.9471 158.306 25.7581C152.93 23.5691 147.174 22.4637 141.368 22.5055Z" fill="#3A8ACA"/>
<path d="M279.605 197H0.394686C0.290203 197 0.190106 196.958 0.116333 196.884C0.0425594 196.81 0.00112915 196.71 0.00112915 196.606C0.00112915 196.502 0.0425594 196.402 0.116333 196.328C0.190106 196.254 0.290203 196.212 0.394686 196.212H279.605C279.71 196.212 279.81 196.253 279.884 196.327C279.958 196.401 280 196.501 280 196.606C280 196.71 279.958 196.811 279.884 196.885C279.81 196.959 279.71 197 279.605 197Z" fill="#3F3D56"/>
<path d="M208.323 90.3472C213.816 90.3472 218.268 85.9021 218.268 80.4188C218.268 74.9355 213.816 70.4904 208.323 70.4904C202.831 70.4904 198.379 74.9355 198.379 80.4188C198.379 85.9021 202.831 90.3472 208.323 90.3472Z" fill="#2F2E41"/>
<path d="M189.947 192.654H185.883L183.949 177.004H189.948L189.947 192.654Z" fill="#A0616A"/>
<path d="M182.98 191.494H190.818V196.421H178.045C178.045 195.774 178.173 195.134 178.421 194.536C178.669 193.938 179.032 193.395 179.491 192.937C179.949 192.48 180.493 192.117 181.092 191.869C181.69 191.622 182.332 191.494 182.98 191.494Z" fill="#2F2E41"/>
<path d="M221.438 192.654H217.374L215.441 177.004H221.439L221.438 192.654Z" fill="#A0616A"/>
<path d="M214.471 191.494H222.309V196.421H209.537C209.537 195.774 209.664 195.134 209.912 194.536C210.16 193.938 210.524 193.395 210.982 192.937C211.44 192.48 211.984 192.117 212.583 191.869C213.182 191.622 213.823 191.494 214.471 191.494Z" fill="#2F2E41"/>
<path d="M206.812 90.4051C211.309 90.4051 214.954 86.7659 214.954 82.2767C214.954 77.7875 211.309 74.1483 206.812 74.1483C202.316 74.1483 198.67 77.7875 198.67 82.2767C198.67 86.7659 202.316 90.4051 206.812 90.4051Z" fill="#A0616A"/>
<path d="M211.665 116.628L215.308 108.271C216.193 106.311 216.446 104.125 216.034 102.015C215.621 99.9042 214.562 97.9738 213.004 96.4896C212.684 96.1737 212.344 95.8786 211.986 95.606C210.189 94.2021 207.974 93.4369 205.691 93.4316C204.157 93.4376 202.642 93.774 201.25 94.4179C201.13 94.4708 201.014 94.5271 200.895 94.5833C200.666 94.6926 200.441 94.8117 200.222 94.9341C198.795 95.7522 197.58 96.8936 196.676 98.2664C195.772 99.6392 195.204 101.205 195.017 102.837L193.41 116.287C193.005 117.343 178.579 155.468 183.624 184.574C183.678 184.885 183.83 185.171 184.058 185.389C184.286 185.608 184.577 185.748 184.891 185.789L190.006 186.484C190.379 186.535 190.758 186.443 191.066 186.226C191.374 186.009 191.589 185.684 191.666 185.316L200.248 144.474C200.302 144.22 200.439 143.991 200.638 143.825C200.837 143.658 201.086 143.562 201.346 143.554C201.605 143.545 201.86 143.623 202.07 143.776C202.28 143.929 202.432 144.148 202.503 144.397L214.628 187.348C214.715 187.66 214.901 187.935 215.159 188.131C215.417 188.327 215.733 188.433 216.057 188.433C216.154 188.433 216.25 188.424 216.346 188.407L222.594 187.205C222.957 187.138 223.282 186.937 223.505 186.642C223.727 186.348 223.832 185.981 223.797 185.614C222.879 175.391 218 124.183 211.665 116.628Z" fill="#2F2E41"/>
<path d="M175.171 89.0412C175.115 89.5244 175.165 90.0142 175.319 90.4759C175.472 90.9376 175.726 91.3601 176.06 91.7136C176.395 92.0671 176.804 92.343 177.257 92.5219C177.71 92.7008 178.197 92.7783 178.683 92.7489L183.234 103.668L186.677 98.5729L181.827 88.9854C181.724 88.1728 181.325 87.4264 180.707 86.8876C180.089 86.3487 179.295 86.0549 178.475 86.0618C177.654 86.0686 176.865 86.3757 176.256 86.9249C175.647 87.474 175.261 88.227 175.171 89.0412Z" fill="#A0616A"/>
<path d="M206.361 127.622C206.845 127.564 207.31 127.401 207.724 127.144C208.138 126.888 208.49 126.544 208.757 126.136C209.023 125.729 209.197 125.268 209.265 124.786C209.334 124.305 209.296 123.814 209.154 123.348L218.729 116.386L212.964 114.23L204.756 121.173C203.988 121.463 203.354 122.023 202.973 122.749C202.592 123.474 202.491 124.314 202.689 125.109C202.887 125.904 203.37 126.599 204.047 127.062C204.723 127.525 205.547 127.724 206.361 127.622Z" fill="#A0616A"/>
<path d="M190.751 110.947C190.384 110.947 190.018 110.911 189.658 110.839C188.787 110.674 187.97 110.297 187.28 109.742C186.589 109.187 186.046 108.471 185.698 107.657L179.322 99.8952C179.187 99.7311 179.089 99.5401 179.034 99.3351C178.979 99.1301 178.969 98.9157 179.004 98.7063C179.038 98.497 179.118 98.2975 179.236 98.1212C179.355 97.945 179.509 97.796 179.69 97.6843L184.226 94.8809C184.394 94.7774 184.58 94.708 184.775 94.6768C184.969 94.6455 185.168 94.653 185.359 94.6989C185.551 94.7447 185.731 94.828 185.891 94.9439C186.05 95.0598 186.184 95.206 186.287 95.3741L190.78 102.765L199.386 96.4157C200.071 96.057 200.863 95.9565 201.616 96.1323C202.37 96.3082 203.035 96.7488 203.489 97.3736C203.944 97.9985 204.159 98.7658 204.094 99.5355C204.029 100.305 203.689 101.026 203.135 101.566L194.546 109.388C193.536 110.387 192.173 110.947 190.751 110.947Z" fill="#2F2E41"/>
<path d="M214.005 122.62C213.994 122.62 213.982 122.62 213.97 122.62C213.761 122.615 213.555 122.566 213.366 122.476C213.177 122.387 213.009 122.259 212.873 122.1L208.84 117.403C208.703 117.243 208.601 117.056 208.541 116.854C208.482 116.651 208.466 116.439 208.495 116.23C208.524 116.022 208.596 115.821 208.709 115.643C208.821 115.464 208.969 115.311 209.145 115.195L216.697 110.168L209.855 101.957C209.457 101.294 209.311 100.511 209.444 99.7502C209.577 98.9892 209.979 98.3013 210.578 97.8121C211.177 97.3229 211.932 97.0652 212.705 97.0859C213.479 97.1066 214.219 97.4044 214.79 97.925L223.105 106.037C223.76 106.634 224.259 107.381 224.561 108.213C224.863 109.045 224.958 109.937 224.838 110.814C224.718 111.691 224.387 112.526 223.873 113.247C223.359 113.968 222.678 114.553 221.887 114.953L215.091 122.153C214.951 122.3 214.783 122.418 214.597 122.498C214.41 122.579 214.209 122.62 214.005 122.62Z" fill="#2F2E41"/>
<path d="M204.742 105.312C204.677 105.312 204.613 105.308 204.548 105.3C204.268 105.266 204.002 105.152 203.784 104.972C203.566 104.792 203.405 104.553 203.318 104.284L200.288 95.008C200.212 94.7735 200.224 94.5194 200.321 94.2928C200.418 94.0662 200.594 93.8824 200.816 93.7753L200.915 93.729C201.004 93.6866 201.092 93.6448 201.182 93.6047C202.595 92.9504 204.134 92.6091 205.691 92.6042C207.714 92.608 209.691 93.2011 211.38 94.3109C211.607 94.4613 211.765 94.6946 211.821 94.9604C211.877 95.2263 211.826 95.5034 211.679 95.7321L205.994 104.624C205.861 104.835 205.676 105.009 205.457 105.129C205.238 105.25 204.992 105.313 204.742 105.312Z" fill="#E6E6E6"/>
<path d="M216.164 75.9864C217.961 75.9864 219.418 74.5318 219.418 72.7376C219.418 70.9433 217.961 69.4888 216.164 69.4888C214.367 69.4888 212.91 70.9433 212.91 72.7376C212.91 74.5318 214.367 75.9864 216.164 75.9864Z" fill="#2F2E41"/>
<path d="M205.009 69.1666C202.723 69.1666 200.531 70.0732 198.914 71.6869C197.298 73.3005 196.39 75.4891 196.39 77.7712V81.4117H200.875L203.02 77.7712L203.663 81.4117H217.274L213.627 77.7712C213.627 75.4891 212.719 73.3005 211.103 71.6869C209.487 70.0732 207.294 69.1666 205.009 69.1666Z" fill="#2F2E41"/>
<path d="M217.836 70.5122C218.196 69.3888 218.941 68.428 219.941 67.7988C220.94 67.1695 222.129 66.9121 223.3 67.0718C225.373 67.4179 227.013 69.0822 227.99 70.9409C228.967 72.7997 229.418 74.88 230.075 76.8741C230.732 78.8682 231.663 80.8732 233.321 82.164C234.979 83.4548 237.523 83.8049 239.152 82.4771C238.966 83.8609 238.349 85.1514 237.388 86.1659C236.427 87.1805 235.171 87.8677 233.797 88.1305C232.424 88.3933 231.002 88.2183 229.734 87.6302C228.465 87.0422 227.414 86.0709 226.729 84.8537C225.869 83.3274 225.648 81.5386 225.393 79.8064C225.138 78.0742 224.807 76.2819 223.781 74.8619C222.755 73.4419 220.835 72.5145 219.205 73.1613L217.836 70.5122Z" fill="#2F2E41"/>
<path d="M112.025 75.4686C109.059 75.4682 106.214 74.2915 104.116 72.1971C102.018 70.1027 100.84 67.2622 100.84 64.3004C100.839 62.2804 100.841 60.736 100.844 60.5163C100.938 53.5973 102.684 46.8005 105.935 40.6897C100.593 47.9913 97.6552 56.7701 97.529 65.8115C97.5259 66.0311 97.5245 67.5756 97.5246 69.5956C97.5248 72.5574 98.7034 75.3979 100.801 77.4922C102.899 79.5866 105.744 80.7634 108.71 80.7637C111.148 80.7628 113.519 79.9675 115.463 78.4986C117.407 77.0298 118.817 74.9677 119.48 72.6255C117.432 74.4592 114.776 75.4719 112.025 75.4686Z" fill="#3F3D56"/>
<path d="M142.126 46.0378C145.556 46.2013 148.895 47.1934 151.856 48.9289C154.817 50.6644 157.312 53.0914 159.126 56.0016C160.941 58.9117 162.021 62.2181 162.273 65.6367C162.526 69.0554 161.944 72.4842 160.577 75.6287C162.554 73.3103 164.007 70.5935 164.838 67.6635C165.668 64.7335 165.856 61.6593 165.388 58.6503C164.92 55.6413 163.808 52.7684 162.128 50.2274C160.447 47.6864 158.237 45.537 155.649 43.9259C153.061 42.3148 150.156 41.2797 147.131 40.8913C144.106 40.5029 141.032 40.7702 138.12 41.6751C135.208 42.5801 132.525 44.1012 130.255 46.135C127.986 48.1688 126.182 50.6673 124.966 53.4602C127.067 50.9937 129.706 49.0418 132.681 47.7549C135.656 46.468 138.888 45.8805 142.126 46.0378Z" fill="#3F3D56"/>
<path d="M145.568 144.967C142.542 144.968 139.636 143.781 137.479 141.662C135.321 139.543 134.085 136.663 134.035 133.642C133.895 124.886 133.822 114.098 133.822 112.866C133.821 109.866 134.253 106.882 135.106 104.007L135.102 104.006C135.606 102.562 136.215 101.158 136.924 99.8025C134.749 102.696 133.018 105.898 131.788 109.301L131.792 109.302C130.938 112.178 130.506 115.161 130.508 118.161C130.508 119.394 130.58 130.181 130.721 138.937C130.77 141.958 132.006 144.838 134.164 146.957C136.321 149.076 139.227 150.263 142.253 150.263C144.748 150.262 147.176 149.454 149.173 147.959C151.169 146.465 152.626 144.364 153.325 141.973C151.205 143.903 148.438 144.971 145.568 144.967Z" fill="#3F3D56"/>
<path d="M41.9469 192.805L46.0106 192.804L47.9441 177.155L41.9459 177.155L41.9469 192.805Z" fill="#FFB8B8"/>
<path d="M53.8485 196.572L41.076 196.572L41.0758 191.646L48.9135 191.645C50.2223 191.645 51.4775 192.164 52.403 193.088C53.3285 194.012 53.8485 195.265 53.8485 196.572Z" fill="#2F2E41"/>
<path d="M27.3614 192.805L31.4251 192.804L33.3587 177.155L27.3604 177.155L27.3614 192.805Z" fill="#FFB8B8"/>
<path d="M39.263 196.572L26.4906 196.572L26.4903 191.646L34.328 191.645C35.6368 191.645 36.892 192.164 37.8175 193.088C38.743 194.012 39.263 195.265 39.263 196.572Z" fill="#2F2E41"/>
<path d="M30.9127 187.992L26.9431 187.783C26.7384 187.772 26.5379 187.721 26.3532 187.633C26.1685 187.544 26.0032 187.42 25.867 187.267C25.7307 187.114 25.6262 186.935 25.5595 186.742C25.4929 186.548 25.4653 186.344 25.4784 186.139L30.2229 133.696L52.0717 139.582L54.1767 139.008L47.5939 185.435C47.5378 185.784 47.3641 186.104 47.1014 186.341C46.8388 186.579 46.5029 186.72 46.1492 186.741L41.8701 186.94C41.6561 186.952 41.442 186.919 41.2413 186.844C41.0406 186.769 40.8576 186.653 40.704 186.504C40.5503 186.355 40.4294 186.176 40.3487 185.977C40.268 185.779 40.2294 185.566 40.2353 185.353L41.0107 157.488C41.0143 157.359 40.9695 157.234 40.885 157.136C40.8005 157.039 40.6825 156.976 40.5543 156.961C40.426 156.946 40.2968 156.98 40.1921 157.055C40.0874 157.131 40.0148 157.243 39.9886 157.369L32.5113 186.761C32.4407 187.11 32.2511 187.423 31.975 187.648C31.6988 187.873 31.353 187.995 30.9967 187.994C30.9689 187.994 30.9409 187.993 30.9127 187.992Z" fill="#2F2E41"/>
<path d="M42.6765 90.7854C47.173 90.7854 50.8182 87.1462 50.8182 82.657C50.8182 78.1678 47.173 74.5286 42.6765 74.5286C38.1799 74.5286 34.5348 78.1678 34.5348 82.657C34.5348 87.1462 38.1799 90.7854 42.6765 90.7854Z" fill="#FFB8B8"/>
<path d="M29.1211 106.538L30.0163 125.821L30.3399 132.837C30.3528 133.142 30.4567 133.437 30.6382 133.683C30.8198 133.929 31.0707 134.116 31.359 134.219L52.3542 141.812C52.5238 141.875 52.7035 141.906 52.8844 141.904C53.0912 141.905 53.2961 141.865 53.4868 141.785C53.6775 141.705 53.8502 141.588 53.9945 141.44C54.1388 141.292 54.2518 141.117 54.3266 140.924C54.4015 140.732 54.4368 140.526 54.4304 140.32L53.5696 105.647C53.5131 102.803 52.4642 100.067 50.6038 97.9115C48.7435 95.7561 46.1882 94.3163 43.3784 93.8402C43.1754 93.8092 42.9688 93.7783 42.7621 93.7508C41.0199 93.5349 39.2514 93.7027 37.5811 94.2426C35.9108 94.7824 34.3793 95.681 33.0943 96.8753C31.7637 98.0971 30.7182 99.5958 30.0316 101.265C29.3451 102.935 29.0342 104.735 29.1211 106.538Z" fill="#CCCCCC"/>
<path d="M62.3835 137.964C61.8869 137.81 61.4333 137.542 61.0587 137.182C60.6841 136.822 60.399 136.38 60.2261 135.89C60.0532 135.401 59.9973 134.878 60.0629 134.363C60.1285 133.848 60.3137 133.355 60.6038 132.925L53.4841 123.473L59.628 123.093L65.4471 132.127C66.0701 132.608 66.5035 133.292 66.6715 134.06C66.8395 134.828 66.7313 135.631 66.3658 136.327C66.0003 137.024 65.4009 137.569 64.6727 137.869C63.9446 138.168 63.1341 138.202 62.3835 137.964Z" fill="#FFB8B8"/>
<path d="M57.3777 131.214C57.189 131.138 57.0175 131.025 56.8729 130.882C56.7283 130.739 56.6136 130.568 56.5353 130.381L45.8089 104.867C45.5985 104.367 45.4887 103.831 45.4858 103.289C45.4829 102.747 45.5871 102.21 45.7923 101.708C45.9974 101.206 46.2996 100.75 46.6816 100.365C47.0636 99.9799 47.5178 99.6737 48.0183 99.464C48.5188 99.2543 49.0558 99.1451 49.5987 99.1426C50.1415 99.1402 50.6795 99.2446 51.1818 99.4498C51.6842 99.655 52.1412 99.9571 52.5266 100.339C52.912 100.72 53.2183 101.174 53.428 101.674L64.1544 127.188C64.3129 127.567 64.3147 127.992 64.1593 128.372C64.0039 128.752 63.704 129.054 63.3255 129.213L58.5635 131.208C58.376 131.288 58.1747 131.329 57.9711 131.33C57.7676 131.331 57.5659 131.292 57.3777 131.214Z" fill="#CCCCCC"/>
<path d="M40.0588 130.314L50.3613 110.62C50.5599 110.241 50.901 109.957 51.3096 109.829C51.7182 109.701 52.1609 109.74 52.5408 109.937L67.4947 117.734C67.8741 117.933 68.1592 118.273 68.2874 118.681C68.4156 119.089 68.3765 119.531 68.1787 119.91L57.8763 139.604C57.6776 139.983 57.3366 140.268 56.928 140.396C56.5194 140.524 56.0766 140.485 55.6968 140.287L40.7429 132.49C40.3635 132.292 40.0784 131.951 39.9502 131.543C39.8219 131.136 39.861 130.693 40.0588 130.314Z" fill="#3F3D56"/>
<path d="M46.968 121.316C46.7849 120.831 46.4905 120.394 46.1085 120.042C45.7264 119.69 45.2672 119.432 44.7675 119.289C44.2678 119.145 43.7414 119.121 43.2304 119.216C42.7194 119.312 42.2379 119.526 41.8243 119.84L31.9531 113.303L31.9363 119.448L41.3128 124.714C41.8304 125.307 42.5404 125.698 43.3183 125.82C44.0962 125.943 44.8923 125.787 45.5669 125.382C46.2416 124.976 46.7518 124.347 47.008 123.604C47.2642 122.86 47.2501 122.05 46.968 121.316Z" fill="#FFB8B8"/>
<path d="M34.4875 122.698L26.4201 116.319C25.5474 116.026 24.7588 115.526 24.1221 114.863C23.4853 114.199 23.0194 113.391 22.7644 112.507C22.5094 111.624 22.4728 110.693 22.6578 109.792C22.8429 108.892 23.244 108.05 23.8267 107.338L31.1517 97.7541C31.6607 97.1331 32.3766 96.7158 33.1685 96.5783C33.9603 96.4409 34.7753 96.5925 35.4644 97.0056C36.1535 97.4186 36.6707 98.0655 36.9214 98.8278C37.1721 99.5902 37.1397 100.417 36.83 101.158L31.0343 110.623L39.5515 114.656C39.7496 114.75 39.9255 114.884 40.0675 115.051C40.2096 115.218 40.3146 115.413 40.3756 115.623C40.4367 115.833 40.4524 116.054 40.4216 116.27C40.3909 116.487 40.3144 116.695 40.1973 116.88L36.7592 122.312C36.643 122.495 36.4895 122.652 36.3086 122.773C36.1278 122.893 35.9237 122.974 35.7095 123.011C35.701 123.012 35.6924 123.013 35.6838 123.015C35.4734 123.047 35.2586 123.035 35.0528 122.98C34.847 122.926 34.6546 122.83 34.4875 122.698Z" fill="#CCCCCC"/>
<path d="M36.5244 88.0998C36.4895 87.9978 36.4784 87.8891 36.492 87.7822C36.5056 87.6752 36.5436 87.5728 36.603 87.4827C36.6624 87.3927 36.7416 87.3174 36.8347 87.2626C36.9277 87.2079 37.0321 87.1751 37.1398 87.1669C37.3603 87.1788 37.5761 87.2353 37.7741 87.3329C37.9722 87.4304 38.1483 87.567 38.292 87.7344C38.5867 88.0736 38.9297 88.3677 39.3101 88.6072C39.7039 88.8054 40.2381 88.7771 40.4626 88.3993C40.6735 88.0444 40.529 87.5692 40.4014 87.1571C40.0766 86.1084 39.8948 85.0208 39.8611 83.9237C39.8243 82.6991 39.9974 81.4211 40.6764 80.4659C41.5528 79.2332 43.12 78.7653 44.6031 78.7992C46.0861 78.8331 47.5452 79.2902 49.0142 79.5791C49.5214 79.6789 50.1175 79.7299 50.4567 79.3375C50.8174 78.9202 50.6849 78.2449 50.5315 77.6815C50.1334 76.2195 49.7111 74.708 48.7861 73.5273C47.786 72.3005 46.3575 71.4975 44.7881 71.2802C43.2814 71.0938 41.752 71.2672 40.3255 71.786C38.0014 72.5173 35.9563 73.9397 34.4638 75.8628C32.9253 77.9079 32.2605 80.4781 32.6148 83.0113C32.9609 85.2176 34.1319 87.2109 35.8918 88.5893L36.5244 88.0998Z" fill="#2F2E41"/>
<path d="M139.642 192.869C137.476 191.927 135.559 190.496 134.042 188.687C132.525 186.879 131.449 184.743 130.901 182.449C130.352 180.155 130.345 177.765 130.88 175.467C131.415 173.17 132.477 171.028 133.984 169.21C132.237 170.483 130.782 172.112 129.715 173.99C128.647 175.867 127.992 177.95 127.792 180.099C127.593 182.249 127.853 184.416 128.557 186.457C129.26 188.498 130.391 190.367 131.873 191.939C133.355 193.511 135.155 194.75 137.153 195.574C139.152 196.398 141.303 196.789 143.464 196.719C145.625 196.65 147.747 196.123 149.688 195.172C151.63 194.222 153.346 192.87 154.724 191.206C152.575 192.775 150.052 193.754 147.405 194.045C144.759 194.337 142.083 193.932 139.642 192.869Z" fill="#3F3D56"/>
</g>
<defs>
<clipPath id="clip0_41_337">
<rect width="280" height="197" fill="white"/>
</clipPath>
</defs>
</svg>
