<svg width="314" height="193" viewBox="0 0 314 193" fill="none" xmlns="http://www.w3.org/2000/svg">
<g clip-path="url(#clip0_41_32)">
<path opacity="0.1" d="M314 123.841C314.005 129.066 313.372 134.271 312.115 139.342C311.692 141.049 311.201 142.722 310.641 144.361C309.955 146.383 309.161 148.366 308.263 150.302C307.81 151.28 307.331 152.239 306.826 153.182C306.834 158.539 305.729 163.839 303.582 168.749C299.697 177.556 292.774 184.677 284.072 188.816C278.624 191.41 272.67 192.774 266.634 192.808H59.6078C50.3961 192.829 41.3432 190.414 33.3696 185.809C32.1913 185.127 31.0431 184.402 29.9252 183.632C27.4979 181.958 25.2175 180.081 23.1084 178.021C20.2532 175.233 17.7378 172.118 15.6144 168.741C10.6259 160.833 7.98325 151.676 7.99252 142.331C2.94056 133.481 -0.00531006 122.881 -0.00531006 111.489C-0.00531006 97.1175 4.67608 84.007 12.3673 74.0824C13.9708 72.0089 15.7272 70.0579 17.6219 68.2457C19.4914 66.4525 21.5007 64.8105 23.6309 63.3353C25.3347 62.1528 27.116 61.0858 28.9628 60.1415C29.7333 59.7476 30.5064 59.3803 31.2929 59.037C31.9833 58.7309 32.6818 58.4462 33.3883 58.1774C34.2361 57.8544 35.0945 57.559 35.9636 57.2911C36.8327 57.0232 37.6902 56.7872 38.5362 56.5831C39.7803 56.2797 41.0458 56.0331 42.3325 55.8432C43.3989 55.6862 44.4653 55.5771 45.5317 55.4919C46.3794 55.4316 47.2343 55.3961 48.0963 55.3855H48.5628C49.5119 55.3855 50.4556 55.4227 51.3914 55.4866C51.49 55.2896 51.5967 55.09 51.6953 54.8931C52.0685 54.1851 52.4551 53.4772 52.8443 52.7825V52.7639C52.911 52.6441 52.9776 52.5244 53.0469 52.4073C53.3615 51.8404 53.6894 51.2788 54.0253 50.7225C54.18 50.4564 54.3319 50.2062 54.4892 49.9534C54.5239 49.8922 54.5585 49.8336 54.5985 49.7724C54.7585 49.5063 54.9211 49.2401 55.0864 48.974C55.9093 47.6627 56.765 46.3719 57.6537 45.1015C57.731 44.9924 57.803 44.8859 57.8803 44.7795C58.0189 44.5825 58.1469 44.3882 58.3015 44.1939C58.6694 43.6803 59.048 43.1639 59.4292 42.6556C59.6958 42.2963 59.9624 41.937 60.2503 41.591C60.9435 40.6968 61.6553 39.8078 62.3831 38.9295C63.1109 38.0512 63.8787 37.1676 64.6545 36.3026C64.7611 36.1829 64.8677 36.0658 64.9797 35.946L66.1181 34.7084C66.174 34.6499 66.222 34.5966 66.2753 34.5434C66.4113 34.397 66.5419 34.2506 66.6886 34.1069C67.2991 33.4628 67.9256 32.8267 68.5547 32.1986C71.7684 29.0108 75.192 26.0411 78.8026 23.3093C78.9439 23.1975 79.0879 23.091 79.2292 22.9846C79.9063 22.4736 80.5941 21.9706 81.2819 21.4755C85.0658 18.7669 89.0205 16.3044 93.1214 14.1032C93.404 13.9435 93.6919 13.7918 93.9825 13.6401C97.6601 11.6992 101.442 9.96126 105.31 8.43427C107.418 7.60211 109.563 6.82496 111.746 6.10281C113.191 5.63173 114.641 5.18194 116.11 4.77207C118.381 4.12089 120.681 3.53359 123.009 3.01017C129.869 1.47366 136.847 0.524497 143.868 0.17303C146 0.0612479 148.157 0.00535748 150.338 0.00535748C160.86 -0.00854981 171.342 1.31509 181.529 3.94435C181.635 4.10326 181.779 4.23281 181.948 4.32081C182.117 4.40881 182.306 4.45236 182.497 4.44737H183.393C183.782 4.55117 184.169 4.66029 184.558 4.77207C186.732 5.39841 188.874 6.08063 190.985 6.81875L191.519 7.01038C196.73 8.86032 201.8 11.084 206.691 13.6641C211.098 15.9852 215.342 18.6031 219.394 21.4995C220.018 21.9466 220.633 22.3982 221.239 22.8542C221.974 22.3804 222.723 21.9289 223.483 21.4995C226.421 19.8301 229.541 18.5031 232.782 17.5445C239.558 15.5426 246.728 15.2627 253.64 16.7301C262.505 18.6065 270.529 23.264 277.01 29.8885C279.65 32.5901 282.002 35.5586 284.027 38.7459C284.173 38.9748 284.32 39.2063 284.461 39.4405C286.199 42.2711 287.692 45.244 288.924 48.3272C288.97 48.439 289.015 48.5481 289.055 48.6599C290.193 51.5452 291.111 54.5124 291.801 57.5359C291.833 57.6876 291.87 57.842 291.902 57.9964C292.547 60.9225 292.986 63.8903 293.214 66.8777C293.214 66.9842 293.214 67.0933 293.235 67.2024C293.347 68.7479 293.404 70.3102 293.406 71.8893C293.406 73.2999 293.358 74.6998 293.27 76.0865C293.27 76.2382 293.248 76.3979 293.235 76.5522C293.211 76.9568 293.176 77.3507 293.142 77.7579C295.178 79.3966 297.083 81.1905 298.842 83.1234C299.618 83.9698 300.37 84.8489 301.097 85.7609C303.312 88.5309 305.258 91.5047 306.909 94.6423C311.409 103.154 314 113.145 314 123.841Z" fill="#3A8ACA"/>
<path opacity="0.1" d="M283.875 176.227C283.875 182.277 277.594 187.938 266.634 192.814H59.6078C50.0291 192.814 41.0582 189.354 33.3696 183.32C31.4368 181.031 30.4184 178.66 30.4184 176.225C30.4184 169.794 37.5205 163.793 49.7998 158.72L50.1464 158.582C53.6121 157.163 57.4857 155.824 61.7192 154.565C61.8259 154.534 61.9352 154.504 62.0418 154.467C65.4009 153.482 68.9741 152.549 72.7616 151.667C72.8815 151.641 72.9988 151.611 73.1188 151.59C74.5797 151.244 76.07 150.922 77.5922 150.6L78.1787 150.477C89.2557 148.183 101.847 146.363 115.502 145.128H115.518C117.43 144.95 119.363 144.792 121.316 144.651C123.489 144.478 125.689 144.332 127.912 144.196C129.61 144.087 131.33 143.994 133.055 143.909C133.061 143.906 133.068 143.905 133.075 143.905C133.081 143.905 133.088 143.906 133.094 143.909C140.876 143.518 148.917 143.313 157.139 143.313C177.469 143.313 196.685 144.558 213.713 146.773C213.728 146.77 213.745 146.77 213.761 146.773C216.379 147.113 218.949 147.473 221.454 147.856C222.172 147.968 222.886 148.079 223.587 148.194C226.415 148.65 229.17 149.132 231.852 149.639C263.39 155.625 283.875 165.31 283.875 176.227Z" fill="#3A8ACA"/>
<path d="M232.337 64.7485C232.337 64.7485 229.516 63.6068 220.543 67.7134C211.569 71.8201 210.449 71.3011 208.127 70.6836C205.805 70.0662 204.51 69.9065 202.02 66.4758C202.02 66.4758 200.263 56.9717 198.554 55.4972C196.845 54.0228 189.631 56.3382 189.631 56.3382C189.631 56.3382 180.969 58.3211 179.319 46.7569C179.319 46.7569 180.49 38.0485 178.895 35.3764C178.895 35.3764 182.116 36.7604 187.426 34.5247C192.737 32.2891 196.989 36.9334 196.989 36.9334C196.989 36.9334 198.322 40.3933 198.189 42.4586C198.056 44.5239 198.898 45.2984 201.431 44.3004C201.431 44.3004 202.676 42.5331 200.913 39.6108C199.151 36.6885 197.893 34.5141 198.383 32.2465C198.874 29.9789 200.29 26.8304 204.835 25.2575C209.38 23.6845 215.552 23.3944 218.514 22.1515C221.476 20.9086 222.206 20.1155 222.206 20.1155C222.206 20.1155 220.383 21.9386 224.678 29.6702C228.972 37.4018 226.235 40.7553 226.235 40.7553C226.235 40.7553 223.95 46.1927 213.862 45.7509C213.862 45.7509 204.142 46.1048 209.442 50.2195C209.442 50.2195 212.835 49.5302 217.909 47.92C222.982 46.3098 226.645 52.9555 227.554 57.5785C228.463 62.2015 232.337 64.7485 232.337 64.7485Z" fill="#3A8ACA"/>
<path d="M219.271 25.9707L219.324 25.9547C219.714 27.4292 215.371 33.359 211.657 38.0724L211.615 38.0378C216.85 31.4001 219.572 27.1125 219.271 25.9707Z" fill="#444053"/>
<path d="M211.689 37.9474L211.713 38.0059C208.746 41.7693 205.016 46.2565 202.03 49.5914C201.745 49.9081 201.463 50.2408 201.191 50.5814L201.105 50.5122C201.372 50.1716 201.663 49.8362 201.948 49.5195C204.931 46.198 208.719 41.7134 211.689 37.9474Z" fill="#444053"/>
<path d="M201.177 50.4271L201.236 50.5283C195.803 57.3017 195.443 67.8279 195.43 67.9104L194.283 66.5796C194.297 66.4945 195.707 57.2485 201.177 50.4271Z" fill="#444053"/>
<path d="M226.048 61.0757C226.048 61.0757 219.65 57.7488 214.648 58.9465C209.647 60.1442 198.399 54.7147 198.399 54.7147C198.399 54.7147 193.627 52.7798 192.668 50.5735C192.668 50.5735 189.391 47.1136 189.202 45.3277C189.013 43.5418 185.827 39.0413 183.747 38.8683" stroke="#444053" stroke-miterlimit="10"/>
<path d="M225.107 64.2774C225.107 64.2774 221.881 62.1057 222.257 59.5773" stroke="#444053" stroke-miterlimit="10"/>
<path d="M220.159 67.08C220.159 67.08 215.544 65.4086 215.094 58.8507" stroke="#444053" stroke-miterlimit="10"/>
<path d="M212.718 68.778C212.718 68.778 208.309 65.1265 209.772 58.7443" stroke="#444053" stroke-miterlimit="10"/>
<path d="M203.763 66.9948C203.763 66.9948 200.831 60.8468 203.441 56.8466" stroke="#444053" stroke-miterlimit="10"/>
<path d="M226.109 57.0222C226.109 57.0222 222.774 58.0868 223.489 59.8327" stroke="#444053" stroke-miterlimit="10"/>
<path d="M222.084 50.9886C222.084 50.9886 217.618 52.4019 217.514 58.7069" stroke="#444053" stroke-miterlimit="10"/>
<path d="M215.856 49.5195C215.856 49.5195 211.79 54.5284 212.089 59.0796" stroke="#444053" stroke-miterlimit="10"/>
<path d="M208.738 51.4836C208.738 51.4836 204.702 55.3375 205.216 57.48" stroke="#444053" stroke-miterlimit="10"/>
<path d="M206.304 50.1237C206.304 50.1237 202.518 50.7997 201.988 49.5594" stroke="#444053" stroke-miterlimit="10"/>
<path d="M201.385 45.5619C201.385 45.5619 203.297 48.0903 203.785 47.5234" stroke="#444053" stroke-miterlimit="10"/>
<path d="M220.345 43.9623C220.345 43.9623 210.801 44.6543 208.642 41.7799" stroke="#444053" stroke-miterlimit="10"/>
<path d="M199.388 32.8187C199.388 32.8187 203.865 42.4134 207.12 43.635" stroke="#444053" stroke-miterlimit="10"/>
<path d="M204.075 28.249C204.075 28.249 206.824 37.0745 210.231 39.8291" stroke="#444053" stroke-miterlimit="10"/>
<path d="M224.36 36.6779C224.36 36.6779 217.104 39.7865 212.747 36.6406" stroke="#444053" stroke-width="0.75" stroke-miterlimit="10"/>
<path d="M210.537 26.3673C210.537 26.3673 212.196 32.8533 214.43 34.421" stroke="#444053" stroke-width="0.75" stroke-miterlimit="10"/>
<path d="M223.265 29.4094C223.265 29.4094 219.186 30.9531 217.666 29.7714" stroke="#444053" stroke-width="0.75" stroke-miterlimit="10"/>
<path d="M197.89 47.6804C197.89 47.6804 197.89 53.3361 196.349 53.7379" stroke="#444053" stroke-miterlimit="10"/>
<path d="M185.283 55.0075C185.283 55.0075 191.415 55.5397 194.233 52.3752" stroke="#444053" stroke-miterlimit="10"/>
<path d="M196.312 41.0001C196.312 41.0001 194.83 46.7356 190.74 48.2819" stroke="#444053" stroke-miterlimit="10"/>
<path d="M181.609 48.9659C181.609 48.9659 185.944 50.4696 189.674 46.6398" stroke="#444053" stroke-miterlimit="10"/>
<path d="M191.489 36.0684C191.489 36.0684 191.081 40.9389 188.429 43.2198" stroke="#444053" stroke-miterlimit="10"/>
<path d="M181.775 41.5431C181.775 41.5431 185.371 41.567 186.213 40.396" stroke="#444053" stroke-miterlimit="10"/>
<path d="M207.786 60.0377H105.361V111.654H207.786V60.0377Z" fill="#33323D"/>
<path d="M240.017 127.336H73.4547V161.312H240.017V127.336Z" fill="#33323D"/>
<path d="M113.215 135.829H198.623L215.64 193H95.2168L113.215 135.829Z" fill="white"/>
<path d="M68.7094 107.079V124.722V128.438V161.31H100.615V129.949H212.857V161.31H244.763V128.438V124.722V107.079H68.7094Z" fill="#504F60"/>
<path opacity="0.1" d="M244.763 107.079H68.7094V124.72H244.763V107.079Z" fill="#33323D"/>
<path opacity="0.8" d="M235.275 118.516C236.721 118.516 237.893 117.346 237.893 115.902C237.893 114.459 236.721 113.289 235.275 113.289C233.829 113.289 232.657 114.459 232.657 115.902C232.657 117.346 233.829 118.516 235.275 118.516Z" fill="#8CCF4D"/>
<path opacity="0.8" d="M223.494 118.516C224.94 118.516 226.112 117.346 226.112 115.902C226.112 114.459 224.94 113.289 223.494 113.289C222.048 113.289 220.876 114.459 220.876 115.902C220.876 117.346 222.048 118.516 223.494 118.516Z" fill="#FA5959"/>
<path d="M204.025 47.6219H109.125V103.811H204.025V47.6219Z" fill="white"/>
<path d="M218.461 129.633C218.661 131.807 217.016 133.918 217.496 136.047C217.597 136.502 217.794 136.933 217.866 137.378C218.063 138.642 217.309 139.84 216.586 140.899L210.394 149.996C210.145 150.395 209.848 150.761 209.508 151.087C208.322 152.152 206.547 152.029 204.992 152.343C203.9 152.564 202.867 153.018 201.966 153.674C201.927 153.705 201.901 153.75 201.894 153.799C201.886 153.849 201.898 153.899 201.926 153.94C202.183 154.291 202.523 154.572 202.916 154.758C203.309 154.944 203.742 155.029 204.177 155.005C204.339 155.218 204.177 155.537 203.953 155.686C203.619 155.915 203.153 155.976 203.097 156.54C203.073 156.736 203.113 156.935 203.209 157.107C203.459 157.488 203.848 157.757 204.294 157.858C206.427 158.513 208.754 157.363 210.359 155.798C211.964 154.233 213.115 152.258 214.691 150.664C215.563 149.783 216.557 149.027 217.453 148.173C219.244 146.469 220.652 144.396 221.985 142.317C222.425 141.715 222.757 141.04 222.966 140.324C223.131 139.616 223.057 138.868 223.249 138.165C223.499 137.247 224.174 136.515 224.734 135.744C225.835 134.232 226.568 132.385 226.421 130.522C226.275 128.659 225.123 126.825 223.363 126.191C222.818 125.975 222.217 125.938 221.649 126.088C220.927 126.309 220.396 126.905 219.903 127.474L218.727 128.829C218.434 129.129 218.202 129.482 218.042 129.87C217.966 130.065 217.949 130.278 217.992 130.483C218.035 130.688 218.137 130.876 218.285 131.025" fill="#FBBEBE"/>
<path opacity="0.05" d="M218.461 129.633C218.661 131.807 217.016 133.918 217.496 136.047C217.597 136.502 217.794 136.933 217.866 137.378C218.063 138.642 217.309 139.84 216.586 140.899L210.394 149.996C210.145 150.395 209.848 150.761 209.508 151.087C208.322 152.152 206.547 152.029 204.992 152.343C203.9 152.564 202.867 153.018 201.966 153.674C201.927 153.705 201.901 153.75 201.894 153.799C201.886 153.849 201.898 153.899 201.926 153.94C202.183 154.291 202.523 154.572 202.916 154.758C203.309 154.944 203.742 155.029 204.177 155.005C204.339 155.218 204.177 155.537 203.953 155.686C203.619 155.915 203.153 155.976 203.097 156.54C203.073 156.736 203.113 156.935 203.209 157.107C203.459 157.488 203.848 157.757 204.294 157.858C206.427 158.513 208.754 157.363 210.359 155.798C211.964 154.233 213.115 152.258 214.691 150.664C215.563 149.783 216.557 149.027 217.453 148.173C219.244 146.469 220.652 144.396 221.985 142.317C222.425 141.715 222.757 141.04 222.966 140.324C223.131 139.616 223.057 138.868 223.249 138.165C223.499 137.247 224.174 136.515 224.734 135.744C225.835 134.232 226.568 132.385 226.421 130.522C226.275 128.659 225.123 126.825 223.363 126.191C222.818 125.975 222.217 125.938 221.649 126.088C220.927 126.309 220.396 126.905 219.903 127.474L218.727 128.829C218.434 129.129 218.202 129.482 218.042 129.87C217.966 130.065 217.949 130.278 217.992 130.483C218.035 130.688 218.137 130.876 218.285 131.025" fill="black"/>
<path d="M223.15 185.601C221.796 186.424 220.111 186.477 218.538 186.282C218.271 186.253 217.986 186.235 217.823 186.429C217.589 186.714 217.866 187.129 218.151 187.358C219.081 188.052 220.171 188.5 221.321 188.659C222.347 188.802 223.383 188.871 224.419 188.864C227.245 188.912 230.087 188.96 232.886 188.553C233.048 188.541 233.205 188.494 233.347 188.417C233.528 188.291 233.653 188.1 233.696 187.885C233.891 187.161 233.521 186.378 232.963 185.875C232.406 185.372 231.689 185.09 230.988 184.811L228.53 183.855C227.951 183.629 227.026 183.035 226.397 183.081C225.248 183.174 224.126 185.032 223.15 185.601Z" fill="#3F3D56"/>
<path opacity="0.05" d="M223.15 185.601C221.796 186.424 220.111 186.477 218.538 186.282C218.271 186.253 217.986 186.235 217.823 186.429C217.589 186.714 217.866 187.129 218.151 187.358C219.081 188.052 220.171 188.5 221.321 188.659C222.347 188.802 223.383 188.871 224.419 188.864C227.245 188.912 230.087 188.96 232.886 188.553C233.048 188.541 233.205 188.494 233.347 188.417C233.528 188.291 233.653 188.1 233.696 187.885C233.891 187.161 233.521 186.378 232.963 185.875C232.406 185.372 231.689 185.09 230.988 184.811L228.53 183.855C227.951 183.629 227.026 183.035 226.397 183.081C225.248 183.174 224.126 185.032 223.15 185.601Z" fill="black"/>
<path d="M224.864 153.011C223.843 154.371 222.782 155.939 223.035 157.624C223.171 158.531 223.681 159.332 224.054 160.171C224.521 161.324 224.867 162.523 225.086 163.748C225.469 165.528 225.853 167.314 226.088 169.121C226.355 171.163 225.102 177.068 224.984 179.126C224.955 179.621 224.899 180.158 224.552 180.515C224.416 180.656 224.235 180.781 224.176 180.954C224.139 181.13 224.168 181.314 224.256 181.471C224.835 182.772 226.016 183.738 227.328 184.292C228.639 184.845 231.83 185.795 233.254 185.846C233.443 185.869 233.635 185.843 233.811 185.771C234.003 185.657 234.154 185.484 234.243 185.279C235.272 183.318 234.283 176.334 234.299 174.117C234.299 172.254 234.75 170.433 234.67 168.586C234.603 167.104 234.206 165.659 234.062 164.179C233.824 161.754 234.27 159.322 234.718 156.926C235.059 155.093 235.4 153.256 235.837 151.441C236.104 150.337 236.413 149.219 237.024 148.247C237.506 147.483 238.162 146.847 238.714 146.118C240.243 144.117 240.922 141.594 240.604 139.097C240.572 138.852 237.053 139.989 236.746 140.122C235.484 140.658 234.321 141.405 233.31 142.331C232.51 143.103 231.857 144.138 231.143 145.006C230.135 146.23 229.14 147.464 228.159 148.708C227.045 150.136 225.947 151.571 224.864 153.011Z" fill="#464353"/>
<path opacity="0.05" d="M224.864 152.923C223.843 154.283 222.782 155.851 223.035 157.538C223.171 158.443 223.681 159.244 224.054 160.083C224.521 161.236 224.866 162.435 225.086 163.66C225.469 165.44 225.853 167.226 226.088 169.033C226.355 171.075 225.102 176.983 224.984 179.041C224.955 179.533 224.899 180.073 224.552 180.427C224.416 180.568 224.235 180.693 224.176 180.866C224.136 181.047 224.165 181.237 224.256 181.399C224.835 182.697 226.016 183.666 227.328 184.217C228.639 184.768 231.83 185.282 233.254 185.327C233.443 185.35 233.635 185.324 233.811 185.252C234.003 185.138 234.154 184.965 234.243 184.76C235.272 182.799 234.283 176.259 234.299 174.045C234.299 172.182 234.75 170.359 234.67 168.512C234.603 167.029 234.206 165.584 234.062 164.104C233.824 161.68 234.27 159.247 234.718 156.854C235.059 155.018 235.4 153.182 235.837 151.366C236.104 150.262 236.413 149.144 237.024 148.173C237.506 147.411 238.162 146.773 238.714 146.059C240.241 144.057 240.92 141.536 240.604 139.038C240.572 138.791 237.053 139.927 236.746 140.063C235.483 140.6 234.32 141.349 233.31 142.277C232.51 143.052 231.857 144.085 231.143 144.939C230.135 146.163 229.14 147.398 228.159 148.644C227.045 150.063 225.947 151.49 224.864 152.923Z" fill="black"/>
<path d="M213.483 123.067C216.653 123.067 219.223 120.501 219.223 117.337C219.223 114.172 216.653 111.607 213.483 111.607C210.313 111.607 207.744 114.172 207.744 117.337C207.744 120.501 210.313 123.067 213.483 123.067Z" fill="#FBBEBE"/>
<path d="M218.65 117.097C219.18 117.942 219.875 118.672 220.693 119.244C221.512 119.815 222.437 120.217 223.414 120.424L222.982 121.986C222.236 124.682 221.383 127.533 219.311 129.401C219.538 128.488 219.244 127.506 218.727 126.721C218.174 125.957 217.518 125.273 216.778 124.688L213.475 121.819C213.377 121.746 213.293 121.656 213.227 121.553C213.148 121.351 213.148 121.126 213.227 120.924C213.649 119.618 214.851 118.795 215.824 117.917C216.313 117.459 216.752 116.95 217.13 116.397C217.807 115.458 218.215 116.397 218.65 117.097Z" fill="#FBBEBE"/>
<path d="M205.92 111.577L205.792 110.513C206.698 110.747 207.557 109.98 208.135 109.182C208.714 108.383 209.252 107.447 210.135 107.117C211.201 106.712 212.342 107.359 213.366 107.891C214.514 108.529 215.774 108.94 217.077 109.102C217.285 109.109 217.491 109.143 217.69 109.203C218.357 109.44 218.674 110.268 218.77 111.032C218.866 111.796 218.839 112.594 219.17 113.27C219.418 113.781 219.847 114.162 220.108 114.665C220.809 116.022 220.132 117.874 220.873 119.205L219.034 117.52C218.863 117.366 218.626 117.206 218.442 117.337C218.258 117.467 218.285 117.664 218.223 117.842C218.045 118.375 217.392 118.524 216.914 118.319C216.437 118.114 216.093 117.661 215.744 117.254C214.931 116.296 213.963 115.455 212.811 115.045C212.313 114.854 211.78 114.772 211.247 114.804C210.714 114.835 210.194 114.98 209.722 115.229C208.863 115.713 208.234 116.842 207.184 116.882C205.741 116.935 205.142 114.255 204.472 113.195C204.716 113.011 204.887 112.748 204.957 112.451C205.026 112.154 204.988 111.842 204.851 111.569C204.968 111.524 205.901 111.404 205.92 111.577Z" fill="#464353"/>
<path d="M229.844 185.556C228.71 186.566 227.237 187.114 225.717 187.092C225.331 187.092 224.795 187.166 224.792 187.552C224.799 187.667 224.838 187.777 224.904 187.871C225.386 188.67 226.145 189.263 227.037 189.537C227.863 189.788 228.748 189.745 229.612 189.702L232.132 189.572C232.606 189.545 233.083 189.521 233.558 189.463C234.032 189.404 234.544 189.306 235.04 189.234C236.255 189.061 237.483 189.003 238.708 189.061C239.034 189.074 239.41 189.061 239.612 188.816C239.815 188.571 239.706 188.13 239.631 187.776C239.482 187.046 239.631 186.282 239.492 185.551C239.25 184.265 238.143 183.283 236.922 182.817C235.789 182.386 233.779 181.894 232.705 182.61C231.553 183.381 230.86 184.638 229.844 185.556Z" fill="#3F3D56"/>
<path d="M232.34 142.544C232.563 143.608 233.585 144.407 233.617 145.471C233.641 146.334 233.022 147.068 232.579 147.8C232.157 148.567 231.8 149.368 231.513 150.195C230.672 152.342 229.629 154.405 228.399 156.357C227.807 157.291 227.146 158.308 227.282 159.407C227.375 159.92 227.556 160.413 227.815 160.865L229.588 164.381C229.978 165.083 230.282 165.829 230.495 166.603C230.647 167.271 230.663 167.963 230.761 168.645C231.041 170.801 232.054 172.972 231.457 175.062C231.404 175.243 231.217 175.461 231.076 175.328C231.66 176.419 232.142 177.521 232.086 178.758C232.062 179.408 231.862 180.089 232.105 180.691C232.242 180.925 232.333 181.183 232.372 181.452C232.372 181.627 232.289 181.795 232.27 181.984C232.222 182.482 232.678 182.897 233.155 183.049C233.633 183.2 234.147 183.195 234.627 183.339C235.552 183.605 236.208 184.403 237 184.957C237.801 185.512 238.749 185.82 239.724 185.843C239.863 185.858 240.002 185.83 240.124 185.763C240.194 185.703 240.25 185.628 240.289 185.544C240.327 185.46 240.348 185.369 240.348 185.276C240.391 184.836 240.324 184.391 240.154 183.982C239.983 183.573 239.715 183.213 239.372 182.932C239.223 182.837 239.1 182.707 239.012 182.554C238.967 182.417 238.956 182.272 238.978 182.13C239.122 180.196 239.087 178.252 238.874 176.323C238.778 175.712 238.746 175.093 238.78 174.476C238.834 173.962 238.988 173.451 238.93 172.938C238.871 172.424 238.613 171.961 238.458 171.466C238.191 170.588 238.261 169.645 238.231 168.725C238.183 167.128 237.818 165.563 237.453 164.008C237.312 163.399 237.152 162.758 236.717 162.305C236.349 161.922 235.755 161.552 235.893 161.041C235.969 160.852 236.083 160.68 236.229 160.538C236.401 160.323 236.527 160.076 236.6 159.811C236.673 159.546 236.691 159.269 236.653 158.997C236.809 159.038 236.974 159.024 237.121 158.956C237.267 158.887 237.384 158.77 237.453 158.624C240.335 157.27 242.665 154.555 243.691 151.542C243.749 151.32 243.839 151.107 243.958 150.911C244.224 150.539 244.688 150.379 245.099 150.171C246.389 149.525 247.282 148.308 248.101 147.119C248.578 146.427 249.052 145.713 249.258 144.902C249.37 144.377 249.423 143.841 249.418 143.305L249.49 140.532C249.504 140.352 249.486 140.172 249.436 139.999C249.368 139.834 249.267 139.684 249.138 139.56C248.356 138.729 247.328 138.169 246.205 137.963C245.448 137.827 244.675 137.854 243.91 137.79C242.425 137.668 240.959 137.21 239.474 137.316C237.138 137.487 235.061 139.102 233.96 141.165C233.574 141.902 233.169 142.544 232.34 142.544Z" fill="#464353"/>
<path d="M219.383 124.509C219.417 124.937 219.36 125.367 219.215 125.771C219.034 126.16 218.575 126.46 218.178 126.303C218.298 126.037 217.978 125.72 217.682 125.755C217.536 125.788 217.4 125.855 217.285 125.952C217.171 126.049 217.082 126.172 217.026 126.311C216.828 126.707 216.761 127.155 216.837 127.591C216.93 128.124 217.245 128.656 217.162 129.188C217.096 129.641 216.762 130.093 216.941 130.519C217.056 130.71 217.2 130.883 217.368 131.03C217.602 131.317 217.717 131.683 217.689 132.052C217.66 132.421 217.491 132.765 217.216 133.013L221.689 133.101C221.526 133.849 221.86 134.612 222.244 135.275C223.318 137.097 224.8 138.645 226.574 139.799C228.347 140.954 230.365 141.683 232.468 141.929C232.354 141.996 232.257 142.087 232.183 142.196C232.109 142.305 232.06 142.429 232.039 142.559C232.019 142.689 232.028 142.821 232.065 142.948C232.102 143.074 232.167 143.19 232.254 143.289C232.617 143.648 233.233 143.603 233.688 143.369C234.144 143.134 234.504 142.749 234.92 142.45C235.654 141.929 236.551 141.687 237.447 141.769C238.007 141.822 238.551 142.003 239.114 142.035C240.772 142.123 242.196 140.933 243.782 140.438C244.944 140.082 246.258 140.082 247.247 139.358C247.669 139.046 248.013 138.535 247.89 138.027C247.786 137.735 247.622 137.469 247.407 137.245C246.845 136.521 246.514 135.648 246.114 134.825C245.317 133.195 244.22 131.729 242.881 130.503C241.872 129.62 240.803 128.808 239.682 128.073C239.409 127.87 239.118 127.692 238.812 127.541C238.405 127.408 238.008 127.247 237.623 127.059C237.09 126.729 236.794 126.146 236.392 125.675C235.504 124.642 234.142 124.166 233.049 123.354C232.316 122.822 231.67 122.093 230.793 121.829C230.369 121.702 229.916 121.691 229.49 121.563C228.525 121.27 227.821 120.413 226.872 120.067C226.12 119.801 225.293 119.865 224.499 119.767C223.625 119.658 222.79 119.342 222.065 118.843C221.824 118.649 221.554 118.495 221.265 118.385C220.068 118.021 219.97 120.248 219.858 121.023C219.679 122.207 219.383 123.346 219.383 124.509Z" fill="#3A8ACA"/>
<path d="M220.551 131.988C220.751 134.163 219.106 136.27 219.586 138.402C219.687 138.857 219.884 139.289 219.956 139.733C220.156 140.997 219.399 142.195 218.677 143.252L212.484 152.327C212.235 152.726 211.938 153.093 211.599 153.418C210.412 154.483 208.637 154.361 207.082 154.675C205.99 154.896 204.958 155.35 204.057 156.005C204.017 156.036 203.991 156.081 203.984 156.131C203.977 156.18 203.988 156.23 204.017 156.272C204.272 156.623 204.612 156.905 205.005 157.091C205.399 157.277 205.832 157.361 206.267 157.336C206.429 157.552 206.267 157.868 206.043 158.017C205.709 158.249 205.243 158.31 205.187 158.874C205.163 159.07 205.203 159.269 205.299 159.441C205.55 159.822 205.939 160.09 206.384 160.192C208.517 160.847 210.844 159.697 212.449 158.132C214.054 156.567 215.206 154.592 216.784 152.998C217.656 152.117 218.65 151.361 219.543 150.507C221.337 148.803 222.729 146.73 224.075 144.651C224.515 144.048 224.847 143.374 225.056 142.658C225.221 141.95 225.147 141.202 225.339 140.5C225.589 139.581 226.264 138.847 226.824 138.078C227.925 136.566 228.658 134.719 228.511 132.856C228.365 130.993 227.213 129.159 225.453 128.526C224.908 128.307 224.307 128.271 223.739 128.422C223.019 128.643 222.486 129.239 221.993 129.808L220.817 131.163C220.524 131.462 220.292 131.816 220.135 132.204C220.059 132.398 220.041 132.611 220.083 132.816C220.126 133.02 220.227 133.208 220.375 133.356" fill="#FBBEBE"/>
<path d="M223.686 123.054C222.87 123.102 221.974 123.181 221.399 123.762C221.159 124.028 220.964 124.332 220.823 124.661C220.265 125.798 219.722 126.985 219.682 128.249C219.647 129.26 219.948 130.248 220.095 131.248C220.223 132.079 219.898 132.925 219.828 133.766C220.839 133.457 222.172 133.037 223.089 132.515C223.69 132.123 224.328 131.791 224.995 131.525C225.968 131.203 227.602 131.757 228.519 132.212C228.57 131.562 228.085 130.437 228.135 129.787C228.143 129.515 228.192 129.246 228.279 128.989C228.417 128.716 228.581 128.457 228.767 128.214C229.121 127.643 229.284 126.974 229.232 126.305C229.181 125.635 228.918 124.999 228.482 124.488C227.663 123.567 226.379 123.221 225.155 123.08C224.383 122.99 223.606 122.963 222.83 122.998" fill="#3A8ACA"/>
<path d="M102.905 104.434L97.6481 96.8221C97.6481 96.8221 97.5495 94.9378 97.2056 94.4986C96.8617 94.0595 97.1309 93.0801 97.1309 93.0801C97.1309 93.0801 97.5015 92.5478 97.1816 92.4919C96.8617 92.436 97.1309 91.2436 97.1309 91.2436L97.107 89.3354C97.107 89.3354 97.4029 87.4989 97.1576 87.0598C97.0852 86.9406 97.0489 86.803 97.0532 86.6637C97.0574 86.5243 97.102 86.3892 97.1816 86.2746C97.1816 86.2746 97.4749 85.2234 97.1816 84.9439C96.8883 84.6644 96.9603 83.0356 97.0323 81.7368C97.1043 80.438 96.5178 79.7061 96.5178 79.5118C96.5178 79.3175 94.577 77.4066 94.577 77.2336C94.577 77.0606 93.348 76.3526 92.6095 76.169C91.871 75.9854 91.5058 75.8257 91.5298 75.7272C91.5538 75.6287 90.3755 75.2401 90.3755 75.2401C90.3755 75.2401 89.3437 75.1656 88.9492 74.652C88.5546 74.1383 87.3496 73.9892 87.3203 73.9839L87.2963 73.8828C87.2963 73.8455 87.283 73.8083 87.275 73.771C87.3723 73.6162 87.4613 73.4562 87.5416 73.2919L87.6109 73.1429C88.0426 73.1457 88.4646 73.0146 88.8185 72.7676C88.9928 72.6234 89.1352 72.4446 89.2366 72.2426C89.338 72.0405 89.3963 71.8196 89.4077 71.5939C89.4287 71.1415 89.3294 70.6915 89.1198 70.2898C88.9039 69.8506 88.5866 69.3929 88.6986 68.9138C88.7466 68.7089 88.8692 68.5279 88.9332 68.3256C89.0287 67.9307 88.9655 67.5142 88.7572 67.1652C88.5706 66.8112 88.312 66.4972 88.1041 66.1539C87.8403 65.7143 87.6638 65.2281 87.5842 64.722C87.5694 64.4527 87.5052 64.1884 87.3949 63.9422C87.2834 63.7687 87.1362 63.6208 86.963 63.5083C86.1938 62.9605 85.2656 62.68 84.3211 62.7099C83.6519 62.7312 82.9881 62.9122 82.3216 62.8297C81.9246 62.7615 81.5339 62.66 81.154 62.5262C80.3302 62.2814 79.3784 62.1829 78.6613 62.654C77.9442 63.1251 77.6589 64.0513 77.171 64.7832C76.7418 65.4219 76.1047 65.9596 75.7847 66.6462C75.7847 66.6462 75.7847 66.6196 75.7847 66.609C75.7042 66.7653 75.6425 66.9305 75.6008 67.1013C75.5093 67.6436 75.5467 68.1997 75.7101 68.7248C75.7462 69.0076 75.8881 69.2662 76.1073 69.4488C76.3499 69.6058 76.6832 69.5685 76.9658 69.6191L76.9338 69.7575C76.6461 71.1333 76.8868 72.5667 77.6083 73.7736C78.3298 74.9804 79.4792 75.8725 80.8287 76.2728C80.8287 76.3234 80.8287 76.3713 80.8287 76.4218C80.8281 76.5624 80.8192 76.7028 80.802 76.8424C80.802 76.8424 78.3307 76.334 77.6669 76.6773C77.0031 77.0207 75.7021 77.2895 75.5048 77.4758C75.3075 77.6621 74.817 77.5264 74.3745 78.6761C73.9319 79.8259 73.8839 80.9996 73.3081 81.5399C72.7322 82.0802 72.4497 82.4448 72.423 82.836C72.3963 83.2273 72.4976 83.3257 72.2764 83.4482C72.0551 83.5706 71.7432 84.0842 71.8338 84.2812C71.8677 84.4158 71.8604 84.5575 71.8129 84.688C71.7654 84.8184 71.6798 84.9317 71.5672 85.0131C71.4506 85.0949 71.3575 85.2057 71.2972 85.3346C71.2369 85.4635 71.2114 85.6059 71.2233 85.7477C71.2233 85.7477 71.074 86.28 70.7301 86.4104C70.3862 86.5408 70.1649 87.3392 70.1649 87.3392L69.0506 88.6168L66.8432 86.1788C66.6774 85.9966 66.4461 85.8873 66.1998 85.8749C65.9535 85.8624 65.7123 85.9478 65.5289 86.1123L64.4438 87.0864C64.0257 87.1878 63.6477 87.4122 63.3588 87.7305C63.1237 87.974 62.9333 88.2569 62.7963 88.5662L62.2044 89.0985C62.0175 89.3297 61.903 89.611 61.8755 89.9069C61.848 90.2028 61.9087 90.5003 62.0498 90.7619L63.4654 92.3242V92.3375C62.9639 92.3816 62.4874 92.5754 62.0978 92.8938C59.9864 94.7568 59.965 96.4681 60.2796 97.2506C60.5942 98.0331 63.2761 101.043 63.2761 101.043C63.2761 101.043 64.8331 103.063 67.0804 104.136L67.0644 104.154C67.0182 104.203 66.9746 104.253 66.9338 104.306L66.8965 104.354L66.8618 104.402L66.8218 104.461C66.8111 104.476 66.8013 104.492 66.7925 104.508L66.7499 104.578C66.74 104.593 66.7311 104.609 66.7232 104.626C66.7045 104.658 66.6886 104.689 66.6726 104.721C66.6667 104.732 66.6614 104.742 66.6566 104.753C66.6352 104.796 66.6139 104.838 66.5952 104.886L66.5739 104.934C66.5606 104.966 66.5499 104.998 66.5366 105.033C66.5283 105.054 66.5212 105.075 66.5153 105.097L66.4833 105.192C66.4746 105.215 66.4675 105.238 66.462 105.262C66.462 105.296 66.4406 105.331 66.4326 105.368C66.4246 105.405 66.4193 105.411 66.414 105.435C66.4086 105.459 66.3873 105.549 66.3766 105.61C66.3766 105.632 66.3766 105.656 66.3633 105.68C66.35 105.703 66.35 105.762 66.342 105.805C66.334 105.847 66.342 105.863 66.342 105.895L66.326 106.015V106.111C66.326 106.156 66.326 106.201 66.3127 106.249C66.2993 106.297 66.3127 106.305 66.3127 106.334C66.3127 106.411 66.3127 106.489 66.3127 106.571C66.2647 109.435 66.4326 109.85 66.4326 109.85C66.5423 110.115 66.7211 110.345 66.9505 110.517C67.1798 110.688 67.4512 110.796 67.7363 110.827C67.8761 110.838 68.0168 110.831 68.1548 110.806C69.4345 110.585 72.4203 110.071 73.4867 110.273C74.1239 110.39 75.2995 110.215 76.1367 110.058L76.3579 110.015L76.5099 110.502L76.9951 110.369L77.4083 110.606L77.6749 110.758C78.1601 112.397 80.1276 111.838 80.1276 111.838L80.5941 112.104L85.3368 112.227C85.8692 112.547 86.4317 112.814 87.0164 113.025C87.0936 113.05 87.173 113.068 87.2536 113.078C87.697 113.114 88.1422 113.122 88.5866 113.102C88.9492 113.102 89.2291 113.078 89.2291 113.078C89.2291 113.078 89.1811 111.793 89.1118 110.353C90.5819 110.317 92.0488 110.197 93.5053 109.994C96.0379 109.552 97.0936 107.252 97.4829 106.023C97.5993 106.525 97.6822 107.035 97.7308 107.548C97.8343 107.999 97.9661 108.444 98.1253 108.879C98.2611 109.226 98.4403 109.555 98.6585 109.858C100.525 109.222 99.3943 108.261 99.0024 107.851C98.6106 107.441 99.269 107.093 99.269 107.093C99.269 107.093 99.7862 106.749 99.7356 106.433C99.6849 106.116 99.6609 105.773 101.335 105.797C103.009 105.821 102.905 104.434 102.905 104.434ZM76.9604 88.8084C76.9818 88.9468 77.227 90.4558 77.4243 90.8524C77.4832 91.1142 77.5021 91.3834 77.4803 91.6508C76.4912 91.571 75.4595 91.5284 75.4595 91.5284C75.4885 91.5644 75.507 91.6077 75.5128 91.6535L75.3555 91.6189L75.1316 91.5657L76.9551 88.7951L76.9604 88.8084ZM73.3454 94.5465L75.0596 94.8127L75.2036 94.834C75.1551 95.0977 75.1257 95.3645 75.1156 95.6324C75.1156 95.659 75.1529 95.6883 75.2089 95.7229C75.185 95.8573 75.1743 95.9937 75.1769 96.1301C75.2036 96.2632 76.0034 96.556 76.9231 96.7981C76.9098 96.8487 76.8991 96.8966 76.8858 96.9392C76.0727 96.5134 74.7957 96.3138 74.6491 95.997C74.5024 95.6803 70.1516 94.1633 70.1516 94.1633L69.7197 93.9477L70.8634 94.1633L71.178 94.1313C71.8907 94.3165 72.6147 94.4552 73.3454 94.5465Z" fill="url(#paint0_linear_41_32)"/>
<path d="M97.3122 105.499C97.3122 105.499 96.6324 109.608 93.1747 110.215C89.717 110.821 78.1734 110.702 78.1734 110.702C78.1734 110.702 71.5725 109.752 69.1865 104.186C66.8005 98.6212 65.2649 96.4042 67.3204 96.3084C69.3758 96.2126 80.3995 100.034 81.0313 100.077C81.6631 100.12 97.9227 91.6162 97.3122 105.499Z" fill="#65617D"/>
<path opacity="0.05" d="M97.3122 105.499C97.3122 105.499 96.6324 109.608 93.1747 110.215C89.717 110.821 78.1734 110.702 78.1734 110.702C78.1734 110.702 71.5725 109.752 69.1865 104.186C66.8005 98.6212 65.2649 96.4042 67.3204 96.3084C69.3758 96.2126 80.3995 100.034 81.0313 100.077C81.6631 100.12 97.9227 91.6162 97.3122 105.499Z" fill="black"/>
<path d="M66.358 110.074C66.4651 110.337 66.6417 110.566 66.8689 110.737C67.096 110.908 67.3654 111.014 67.6483 111.045C67.7882 111.054 67.9288 111.046 68.0668 111.021C69.3331 110.803 72.303 110.292 73.3507 110.489C73.9799 110.603 75.1449 110.43 75.974 110.276C76.5259 110.172 76.9311 110.074 76.9311 110.074C76.9311 110.074 75.9553 106.84 75.8354 106.744C75.7154 106.648 71.4499 104.083 71.4499 104.083L68.0748 103.84C67.6204 103.908 67.2098 104.148 66.9285 104.511C66.5739 104.942 66.2673 105.647 66.246 106.805C66.19 109.656 66.358 110.074 66.358 110.074Z" fill="#3F3D56"/>
<path opacity="0.05" d="M66.358 110.074C66.4651 110.337 66.6417 110.566 66.8689 110.737C67.0961 110.908 67.3654 111.014 67.6483 111.045C67.3177 110.619 67.0116 110.175 66.7312 109.714L66.7499 107.356C66.6828 106.709 66.7684 106.056 66.9999 105.448C67.2314 104.84 67.6023 104.295 68.0828 103.856C68.0828 103.856 66.3046 103.976 66.254 106.821C66.2033 109.666 66.358 110.074 66.358 110.074Z" fill="black"/>
<path opacity="0.1" d="M80.9967 104.916L84.1398 102.459L89.0825 97.5965L87.7495 97.5353C87.5495 97.663 86.9897 98.0676 86.9684 98.552C86.9444 99.1455 85.6354 98.5945 84.9502 98.9326C84.2651 99.2706 80.9327 103.537 80.3488 103.508C79.765 103.478 79.3011 103.212 79.0559 103.627L79.0399 103.654L80.9967 104.916Z" fill="black"/>
<path opacity="0.1" d="M66.9205 104.516C67.0324 104.57 67.1471 104.623 67.2617 104.671C69.6477 105.693 72.5936 107.833 72.8149 108.221C72.9482 108.458 74.657 109.493 75.974 110.271C76.5259 110.167 76.9311 110.068 76.9311 110.068C76.9311 110.068 75.9553 106.835 75.8354 106.739C75.7154 106.643 71.4499 104.077 71.4499 104.077L68.0748 103.835C67.6159 103.904 67.2018 104.148 66.9205 104.516Z" fill="black"/>
<path d="M60.2983 97.5487C60.6129 98.3258 63.2681 101.317 63.2681 101.317C63.2681 101.317 64.9477 103.505 67.3364 104.511C69.725 105.517 72.6682 107.673 72.8868 108.062C73.0281 108.312 74.9316 109.456 76.2699 110.241L76.5712 110.417L77.235 110.803L77.5869 111.002C77.5869 111.002 78.4027 110.35 79.2158 109.693C80.0289 109.036 80.8154 108.392 80.8154 108.362C80.8154 108.333 81.1566 107.463 81.082 107.415C81.0073 107.367 80.8767 107.053 80.5674 106.662C80.241 106.228 79.8162 105.878 79.3278 105.64C78.6212 105.277 78.0576 104.687 77.7282 103.966C77.7282 103.966 77.6216 103.888 77.4616 103.785C77.13 103.557 76.7596 103.392 76.3686 103.297C75.8354 103.231 74.833 102.137 74.833 102.137C74.4432 101.884 74.1181 101.543 73.8839 101.142C73.6173 100.609 69.8503 98.0171 69.5011 97.7776L78.656 103.649L80.8474 105.054L83.9905 102.6L88.9332 97.7376L87.3016 97.6631C84.9023 97.5593 80.6367 97.397 80.1036 97.5194C79.6668 97.6198 79.2168 97.6494 78.7706 97.6072C78.7706 97.6072 77.5549 97.6605 76.7498 97.2373C75.9447 96.8141 74.6784 96.6145 74.5317 96.3004C74.3851 95.9864 70.077 94.48 70.077 94.48C70.077 94.48 64.2119 91.3687 62.1138 93.2158C60.0157 95.0629 59.981 96.7662 60.2983 97.5487Z" fill="#65617D"/>
<path d="M79.2185 79.7034L79.9729 82.2079L80.9487 87.8475L84.529 88.0897L85.5528 86.3864L86.5871 84.6724C86.5871 84.6724 87.2323 82.3942 87.6962 80.1905C88.1041 78.2396 88.3733 76.3446 87.9281 76.1397C87.5309 75.9587 87.2723 75.3013 87.1017 74.5934C87.0803 74.5082 87.0617 74.4177 87.0457 74.3272C86.9263 73.7289 86.8461 73.1235 86.8058 72.5147C86.8058 72.5147 79.3065 72.1262 80.3542 75.2135C80.5411 75.7409 80.6366 76.2962 80.6368 76.8556C80.6368 76.9993 80.6368 77.1404 80.6101 77.2735C80.5581 77.7523 80.4077 78.2153 80.1682 78.6334C79.9288 79.0515 79.6054 79.4158 79.2185 79.7034Z" fill="#EE8E9E"/>
<path d="M77.6616 79.2908L77.9282 83.5492L78.536 87.1715L79.2185 88.8509L79.829 98.0276C79.829 98.0276 85.694 98.7063 87.1283 98.0143C87.2341 97.9739 87.3264 97.9048 87.3949 97.8147C89.1198 95.2145 88.5546 87.6825 88.5546 87.6825L89.2104 82.8199L88.7732 80.2969L87.7068 80.1851L86.8911 80.0972C86.8911 80.0972 86.7071 80.3235 86.4405 80.6748C85.718 81.6249 84.3904 83.4986 84.481 84.2784C84.601 85.343 84.3344 86.4422 83.9185 86.6126C83.5026 86.7829 83.1641 87.0756 83.0921 86.7829C82.9885 86.5375 82.9624 86.2663 83.0174 86.0057C83.0921 85.5905 82.7002 84.3263 82.7002 84.3263C82.7002 84.3263 82.0444 82.8439 82.0924 82.2131C82.1403 81.5824 82.0204 80.8504 81.8258 80.6801C81.6311 80.5098 81.3619 80.3394 81.5805 79.5623C81.7991 78.7851 80.6208 77.2708 80.6208 77.2708L77.6616 79.2908Z" fill="#E3E8F4"/>
<path opacity="0.1" d="M85.4168 89.9155L85.6621 97.184L87.067 97.9638C87.1725 97.9216 87.2646 97.8517 87.3336 97.7616C89.0585 95.1613 88.4933 87.6293 88.4933 87.6293L89.1518 82.7668L88.7119 80.2437L87.6455 80.1319C88.0561 78.181 88.3227 76.2887 87.8774 76.0811C87.4802 75.9002 87.2216 75.2428 87.0537 74.5375L86.2939 79.6795C86.2939 79.6795 86.3579 80.1426 86.3792 80.6216C86.4108 80.9245 86.39 81.2306 86.3179 81.5265C86.2194 81.9245 86.203 82.3383 86.2699 82.7428C85.83 83.5147 85.6114 84.9465 85.5048 86.3278C85.3608 88.1643 85.4168 89.9155 85.4168 89.9155Z" fill="black"/>
<path d="M87.075 74.4097C87.075 74.4097 88.304 74.5614 88.6932 75.0724C89.0825 75.5834 90.1062 75.6579 90.1062 75.6579C90.1062 75.6579 91.2739 76.0465 91.2499 76.1423C91.2259 76.2381 91.5911 76.3871 92.3162 76.5814C93.0414 76.7757 94.265 77.481 94.265 77.646C94.265 77.811 96.1872 79.7113 96.1872 79.9056C96.1872 80.0999 96.771 80.8292 96.6991 82.1173C96.6271 83.4055 96.5524 85.0449 96.8457 85.3111C97.1389 85.5772 96.8457 86.6232 96.8457 86.6232C96.7669 86.7371 96.7227 86.8712 96.7184 87.0096C96.7142 87.1479 96.75 87.2845 96.8217 87.403C97.0643 87.8395 96.771 89.6626 96.771 89.6626L96.7977 91.5603C96.7977 91.5603 96.5311 92.7499 96.8457 92.8005C97.1603 92.8511 96.7977 93.3834 96.7977 93.3834C96.7977 93.3834 96.5311 94.3548 96.8697 94.794C97.2083 95.2331 97.3069 97.1015 97.3069 97.1015L102.519 104.663C102.519 104.663 102.593 106.049 100.938 106.025C99.2823 106.001 99.3037 106.342 99.3543 106.656C99.405 106.97 98.8905 107.314 98.8905 107.314C98.8905 107.314 98.2346 107.654 98.6239 108.067C99.0131 108.479 100.133 109.429 98.2826 110.06C98.0646 109.76 97.8855 109.434 97.7494 109.089C97.5926 108.66 97.4626 108.222 97.3602 107.777C97.3602 107.777 97.1896 105.927 96.8483 105.685C96.5071 105.443 96.5551 104.274 96.5551 104.274C96.5551 104.274 97.043 103.327 96.3605 102.943C95.678 102.56 85.7927 97.0882 85.7927 97.0882L85.5527 89.817C85.5527 89.817 85.3821 84.4435 86.4059 82.6443C86.339 82.2398 86.3553 81.826 86.4538 81.428C86.6245 80.9915 86.4298 79.5809 86.4298 79.5809L87.075 74.4097Z" fill="#3F3D56"/>
<path opacity="0.1" d="M80.6927 77.3374C80.6927 77.3374 78.2454 76.8343 77.5869 77.175C76.9284 77.5157 75.6408 77.7818 75.4542 77.9735C75.2675 78.1651 74.7743 78.024 74.3345 79.1658C73.8946 80.3076 73.8493 81.476 73.2867 82.0109C72.7242 82.5459 72.4363 82.9105 72.4123 83.2991C72.3883 83.6876 72.4843 83.7861 72.2657 83.9059C72.0471 84.0257 71.7325 84.5393 71.8258 84.7336C71.9191 84.9279 76.8911 89.2076 76.8911 89.2076C76.8911 89.2076 77.1364 90.8364 77.355 91.2489C77.5736 91.6614 77.1124 97.3517 76.6245 97.7403C76.1366 98.1289 79.9009 98.0969 79.9009 98.0969C79.9009 98.0969 80.0716 94.3708 80.2182 94.1686C80.3648 93.9663 80.1196 89.9874 80.1196 89.9874C80.1196 89.9874 80.0956 86.5833 80.4128 85.6838C80.7301 84.7842 80.6794 81.7927 80.6794 81.7927C80.6794 81.7927 80.9593 79.9988 81.3006 79.581C81.6418 79.1631 80.6927 77.3374 80.6927 77.3374Z" fill="black"/>
<path d="M80.6208 77.2655C80.6208 77.2655 78.1734 76.7625 77.5149 77.1005C76.8565 77.4385 75.5661 77.7099 75.3822 77.8989C75.1982 78.0879 74.6997 77.9468 74.2625 79.0913C73.8253 80.2357 73.7746 81.3988 73.2148 81.9337C72.6549 82.4687 72.3617 82.8333 72.3377 83.2219C72.3137 83.6104 72.4123 83.7089 72.1911 83.8313C71.9698 83.9538 71.6579 84.4621 71.7538 84.6564C71.8498 84.8507 76.8191 89.1304 76.8191 89.1304C76.8191 89.1304 77.0617 90.7592 77.283 91.1717C77.5043 91.5842 77.0377 97.2745 76.5499 97.6631C76.062 98.0516 79.8397 98.017 79.8397 98.017C79.8397 98.017 80.0103 94.291 80.1542 94.0914C80.2982 93.8918 80.0583 89.9075 80.0583 89.9075C80.0583 89.9075 80.0343 86.5061 80.3515 85.6066C80.6688 84.707 80.6314 81.7155 80.6314 81.7155C80.6314 81.7155 80.9114 79.9216 81.2526 79.5038C81.5938 79.0859 80.6208 77.2655 80.6208 77.2655Z" fill="#3F3D56"/>
<path opacity="0.1" d="M80.3649 75.2081C80.5518 75.7355 80.6473 76.2908 80.6474 76.8503C81.8437 77.2001 83.1226 77.1413 84.2816 76.6833C85.4406 76.2253 86.4134 75.3942 87.0457 74.3219C86.9263 73.7236 86.8462 73.1181 86.8058 72.5094C86.8058 72.5094 79.3171 72.1181 80.3649 75.2081Z" fill="black"/>
<path d="M76.6618 71.365C76.6609 72.7919 77.2085 74.1648 78.1917 75.2005C79.1749 76.2362 80.5187 76.8558 81.946 76.9314C83.3733 77.007 84.7753 76.5329 85.8627 75.6069C86.9502 74.6809 87.6402 73.3735 87.7905 71.9545C87.9408 70.5355 87.54 69.113 86.6706 67.9804C85.8011 66.8478 84.5295 66.0915 83.1179 65.8674C81.7064 65.6433 80.2625 65.9685 79.084 66.776C77.9056 67.5835 77.0825 68.8117 76.7845 70.2073C76.7028 70.5878 76.6617 70.9758 76.6618 71.365Z" fill="#EE8E9E"/>
<path d="M73.0815 84.2572L71.7485 84.6697C71.7826 84.804 71.7754 84.9453 71.7278 85.0754C71.6803 85.2055 71.5946 85.3182 71.4819 85.399C71.3659 85.4798 71.2735 85.5899 71.214 85.718C71.1545 85.8461 71.1302 85.9876 71.1434 86.1282C71.1434 86.1282 70.9967 86.6605 70.6555 86.7856C70.3142 86.9107 70.0956 87.7091 70.0956 87.7091L68.9759 88.9973C68.9759 88.9973 68.5601 89.338 68.6347 89.5083C68.7093 89.6786 68.1948 89.7265 68.1948 89.7265L68.4614 94.0541L70.7755 94.4933L72.2124 94.3469L73.3801 93.9104L74.4038 93.3009L74.865 92.1112L76.9125 88.9973L73.0815 84.2572Z" fill="#3F3D56"/>
<path d="M68.5281 90.0593C68.5281 90.0593 65.5582 85.7823 63.3401 88.0898C61.1221 90.3973 64.2412 94.1446 64.9717 94.0222C65.7022 93.8998 69.1865 93.7055 69.1865 93.7055L68.5281 90.0593Z" fill="#EE8E9E"/>
<path d="M75.5247 88.2098L62.4054 81.5248C62.2035 81.4219 61.9562 81.5019 61.8531 81.7036L56.7374 91.7097C56.6343 91.9113 56.7144 92.1582 56.9164 92.2611L70.0357 98.946C70.2376 99.0489 70.4849 98.9689 70.588 98.7673L75.7037 88.7612C75.8068 88.5595 75.7266 88.3127 75.5247 88.2098Z" fill="#3F3D56"/>
<path d="M74.3044 88.8042L62.6621 82.8718L58.1838 91.631L69.8262 97.5634L74.3044 88.8042Z" fill="#3A8ACA"/>
<path d="M59.9757 87.2327C60.0935 87.2327 60.189 87.1374 60.189 87.0198C60.189 86.9022 60.0935 86.8069 59.9757 86.8069C59.8579 86.8069 59.7624 86.9022 59.7624 87.0198C59.7624 87.1374 59.8579 87.2327 59.9757 87.2327Z" fill="#E6E8EC"/>
<path d="M72.5776 93.8199C72.7734 93.8199 72.9322 93.6614 72.9322 93.4659C72.9322 93.2704 72.7734 93.1119 72.5776 93.1119C72.3818 93.1119 72.2231 93.2704 72.2231 93.4659C72.2231 93.6614 72.3818 93.8199 72.5776 93.8199Z" fill="#E6E8EC"/>
<path d="M66.6059 90.9588C66.5793 94.1685 73.2281 94.8499 73.2281 94.8499L74.9263 95.116L75.6888 95.2358L76.006 92.1006C76.006 92.1006 75.6568 92.0473 75.2222 91.9462C74.5771 91.7972 73.7426 91.539 73.5694 91.1744C73.2894 90.5702 66.6246 87.749 66.6059 90.9588Z" fill="#EE8E9E"/>
<path opacity="0.1" d="M76.7845 70.2072C76.9374 70.2185 77.0815 70.2825 77.1924 70.3882C77.379 70.5878 77.3897 70.9417 77.6349 71.0642C77.7266 71.1028 77.8276 71.1139 77.9255 71.0961C78.5733 71.0056 78.9466 70.2764 79.5704 70.0741C79.9331 69.9811 80.3166 70.0139 80.6581 70.1673C80.7969 70.2121 80.9217 70.2919 81.0207 70.3988C81.2286 70.6649 81.082 71.0642 81.178 71.3889C81.3113 71.8413 81.8524 72.0196 82.319 72.0782C82.7855 72.1367 83.3134 72.1713 83.6253 72.5227C83.7285 72.6544 83.8026 72.8065 83.8426 72.9689C83.8826 73.1313 83.8876 73.3003 83.8572 73.4648C83.8292 73.5794 83.8292 73.699 83.8572 73.8135C83.9852 74.1781 84.617 74.1222 84.7823 73.8348C84.9049 73.6245 84.8676 73.4515 85.1529 73.393C85.3567 73.3768 85.5612 73.4125 85.7474 73.4968C86.2437 73.6668 86.7664 73.747 87.291 73.7336C87.6246 73.0232 87.8041 72.2504 87.8177 71.4659C87.8312 70.6814 87.6785 69.9029 87.3696 69.1814C87.0606 68.4599 86.6024 67.8118 86.025 67.2794C85.4476 66.7471 84.764 66.3427 84.0191 66.0925C83.2741 65.8424 82.4846 65.7524 81.7023 65.8282C80.9201 65.904 80.1627 66.144 79.4798 66.5326C78.797 66.9211 78.2041 67.4493 77.7401 68.0825C77.276 68.7158 76.9513 69.4398 76.7872 70.2072H76.7845Z" fill="black"/>
<path d="M83.8546 73.6672C83.8266 73.5526 83.8266 73.4331 83.8546 73.3185C83.885 73.1544 83.8801 72.9858 83.8401 72.8238C83.8001 72.6618 83.726 72.5101 83.6226 72.379C83.3107 72.025 82.7855 71.9931 82.3163 71.9319C81.8471 71.8707 81.3086 71.695 81.1753 71.2426C81.0793 70.9179 81.2259 70.5213 81.018 70.2551C80.9206 70.1463 80.7952 70.0662 80.6554 70.0236C80.3142 69.8696 79.9307 69.8358 79.5677 69.9278C78.9439 70.1301 78.5707 70.8593 77.9228 70.9498C77.825 70.9689 77.7236 70.9577 77.6323 70.9179C77.387 70.7954 77.3657 70.4414 77.1897 70.2418C76.8938 69.9304 76.3313 70.1327 75.9714 69.9012C75.7531 69.7193 75.6121 69.4615 75.5768 69.1799C75.4156 68.658 75.3791 68.1056 75.4702 67.567C75.6808 66.6648 76.4912 66.0447 77.0058 65.2702C77.4883 64.5516 77.7602 63.6414 78.4827 63.165C79.2052 62.6885 80.1356 62.795 80.954 63.0372C81.3303 63.1712 81.7174 63.2727 82.111 63.3406C82.7695 63.4205 83.4307 63.2421 84.0918 63.2208C85.0289 63.1906 85.9496 63.4714 86.7098 64.0193C86.8812 64.1309 87.0267 64.2779 87.1363 64.4504C87.2463 64.6951 87.3113 64.9574 87.3283 65.2249C87.4062 65.7274 87.5809 66.2101 87.8428 66.6462C88.0454 66.9895 88.304 67.2982 88.488 67.6522C88.6936 67.9992 88.7567 68.4122 88.6639 68.8046C88.5999 69.0042 88.4773 69.1852 88.4293 69.3902C88.3227 69.8639 88.6346 70.319 88.8479 70.7555C89.0554 71.155 89.1538 71.6021 89.1331 72.0516C89.1218 72.2757 89.064 72.4949 88.9635 72.6956C88.863 72.8962 88.722 73.0739 88.5493 73.2174C88.1872 73.4681 87.7556 73.5994 87.315 73.5926C86.7806 73.6089 86.2478 73.5286 85.742 73.3558C85.5555 73.2728 85.3513 73.2371 85.1475 73.252C84.8623 73.3105 84.8996 73.4835 84.777 73.6938C84.6144 73.9759 83.9852 74.0318 83.8546 73.6672Z" fill="#3F3D56"/>
<path opacity="0.1" d="M80.85 105.059L83.9932 102.606L88.9358 97.743L87.3043 97.6685C87.1127 97.8414 86.9905 98.0778 86.9604 98.3338C86.9364 98.9273 85.6274 98.3737 84.9423 98.7144C84.2571 99.0551 80.9247 103.319 80.3408 103.29C79.757 103.26 79.2931 102.994 79.0479 103.407L79.0319 103.433C78.9346 103.545 78.8037 103.623 78.6586 103.654L80.85 105.059Z" fill="black"/>
<path d="M74.5184 104.889L76.0967 109.922L76.3446 110.72L77.0964 110.515L78.7546 110.06L86.1339 108.037C87.0635 107.997 87.9732 107.756 88.7999 107.33C90.195 106.549 91.7914 106.202 93.3853 106.331C94.361 106.422 95.4461 106.001 96.3472 104.341C96.3472 104.341 98.3919 98.3124 93.2307 96.5851C88.0694 94.8578 87.8215 97.5033 87.8215 97.5033L87.7495 97.5459C87.5496 97.6737 86.9897 98.0782 86.9684 98.5626C86.9444 99.1561 85.6354 98.6052 84.9503 98.9432C84.2651 99.2812 80.9327 103.548 80.3489 103.518C79.765 103.489 79.3011 103.223 79.0559 103.638L79.0399 103.665C78.8586 103.912 78.3174 103.971 77.9575 103.979C77.8456 103.985 77.7335 103.985 77.6216 103.979L77.5736 103.992L77.2004 104.104L74.5184 104.889Z" fill="#65617D"/>
<path opacity="0.1" d="M74.9263 95.1187L75.6888 95.2384L76.006 92.1032C76.006 92.1032 75.6568 92.05 75.2222 91.9489C75.3369 92.388 75.0756 94.078 74.9263 95.1187Z" fill="black"/>
<path opacity="0.1" d="M94.8409 80.4646C94.8409 80.4646 97.1043 79.8072 96.5444 86.2267C96.1558 90.1448 94.4874 93.8266 91.7964 96.705C91.7964 96.705 86.9737 98.8182 84.8063 98.4775C82.6389 98.1368 81.058 98.065 81.058 98.065C80.3751 97.7207 79.6279 97.5222 78.8639 97.4821C77.6482 97.4342 75.0916 96.6837 75.041 96.4361C74.9903 96.1886 75.6755 92.6196 75.3822 92.3534C75.3822 92.3534 78.7919 92.4918 79.1332 92.7367C79.4744 92.9815 79.9623 92.8085 80.3275 92.7367C80.6928 92.6648 81.8124 91.696 84.0278 92.5477C84.0278 92.5477 84.7823 92.6196 85.0756 92.4253C85.3146 92.3141 85.5869 92.297 85.838 92.3774C86.0276 92.3145 86.2071 92.2249 86.3712 92.1112C86.4432 92.0154 87.0297 92.1112 87.0297 92.1112C87.0646 92.1268 87.1025 92.1347 87.1407 92.1344C87.1789 92.1341 87.2167 92.1255 87.2513 92.1094C87.2859 92.0932 87.3167 92.0698 87.3415 92.0407C87.3663 92.0117 87.3845 91.9776 87.3949 91.9409C87.472 91.7425 87.588 91.5616 87.7362 91.4086C87.7362 91.4086 88.392 87.7145 89.6343 86.3278C89.7335 86.2413 89.8097 86.1316 89.8562 86.0086C89.9028 85.8855 89.9181 85.7529 89.9009 85.6225C89.7996 85.2286 91.919 79.6848 94.8409 80.4646Z" fill="black"/>
<path d="M94.7796 79.9696C94.7796 79.9696 97.0456 79.3149 96.4858 85.7317C96.0981 89.6501 94.4296 93.3322 91.7377 96.2099C91.7377 96.2099 86.9151 98.3258 84.7476 97.9851C82.5802 97.6445 80.9967 97.5646 80.9967 97.5646C80.3148 97.2202 79.5684 97.0217 78.8053 96.9818C77.5869 96.9312 75.0303 96.1833 74.9823 95.9358C74.9343 95.6883 75.6141 92.1192 75.3235 91.8504C75.3235 91.8504 78.7333 91.9915 79.0745 92.2363C79.4158 92.4812 79.901 92.3055 80.2662 92.2363C80.6314 92.1672 81.7511 91.1957 83.9692 92.0447C83.9692 92.0447 84.7237 92.1192 85.0142 91.925C85.2534 91.8146 85.525 91.7966 85.7767 91.8744C85.9656 91.8101 86.145 91.7205 86.3099 91.6082C86.3819 91.5098 86.9657 91.6082 86.9657 91.6082C87.0006 91.6238 87.0385 91.6317 87.0767 91.6314C87.1149 91.6311 87.1527 91.6225 87.1873 91.6064C87.2219 91.5902 87.2527 91.5668 87.2775 91.5377C87.3023 91.5087 87.3205 91.4746 87.3309 91.4379C87.408 91.2395 87.5241 91.0586 87.6722 90.9056C87.6722 90.9056 88.3307 87.2115 89.573 85.8248C89.6722 85.7383 89.7484 85.6286 89.7949 85.5056C89.8414 85.3825 89.8568 85.2499 89.8396 85.1195C89.7409 84.7363 91.8577 79.2004 94.7796 79.9696Z" fill="#3F3D56"/>
<path opacity="0.1" d="M77.1924 104.091L80.4075 107.976L80.4288 107.955C80.4528 107.88 80.7701 107.055 80.6954 107.005C80.6208 106.954 80.0636 105.741 78.9439 105.23C78.3744 104.952 77.8961 104.518 77.5656 103.979L77.1924 104.091Z" fill="black"/>
<path opacity="0.1" d="M77.235 110.816L77.5869 111.016C77.5869 111.016 78.4027 110.364 79.2158 109.706C80.0289 109.049 80.8154 108.405 80.8154 108.376C80.8154 108.346 81.1566 107.476 81.082 107.428C81.0073 107.38 80.8767 107.066 80.5675 106.675C78.3867 106.065 79.7677 107.577 79.9596 107.646C79.9596 107.646 77.307 107.037 77.1604 109.925C77.1477 110.224 77.1728 110.523 77.235 110.816Z" fill="black"/>
<path d="M79.9249 112.038L80.3888 112.304L85.0889 112.424C85.6158 112.744 86.173 113.011 86.7524 113.222C86.8292 113.245 86.9076 113.262 86.987 113.273C87.4233 113.308 87.8614 113.316 88.2987 113.297C88.6586 113.297 88.9358 113.273 88.9358 113.273C88.9358 113.273 88.7145 107.356 88.5466 106.733C88.4666 106.435 88.0721 106.499 87.6828 106.648C87.391 106.767 87.1093 106.91 86.8404 107.074C86.8404 107.074 84.8463 107.268 84.529 107.439C84.2118 107.609 83.3107 107.34 82.7508 107.439C82.191 107.537 81.1913 106.781 81.1913 106.781C78.464 105.882 79.9996 107.558 80.1942 107.633C80.1942 107.633 77.5283 107.024 77.3923 109.911C77.2563 112.799 79.9249 112.038 79.9249 112.038Z" fill="#3F3D56"/>
<path d="M86.7205 109.754C86.7711 110.978 87.7282 112.498 88.2987 113.302C88.6586 113.302 88.9358 113.278 88.9358 113.278C88.9358 113.278 88.7146 107.361 88.5466 106.739C88.4666 106.441 88.0721 106.504 87.6829 106.654C87.211 107.537 86.6778 108.764 86.7205 109.754Z" fill="#565387"/>
<path opacity="0.1" d="M86.7205 109.754C86.7711 110.978 87.7282 112.498 88.2987 113.302C88.6586 113.302 88.9358 113.278 88.9358 113.278C88.9358 113.278 88.7146 107.361 88.5466 106.739C88.4666 106.441 88.0721 106.504 87.6829 106.654C87.211 107.537 86.6778 108.764 86.7205 109.754Z" fill="black"/>
<path opacity="0.05" d="M85.9153 109.916C86.2406 111.098 86.2352 112.424 86.7524 113.227C86.8292 113.25 86.9076 113.267 86.987 113.278C87.4233 113.313 87.8614 113.321 88.2987 113.302C88.6586 113.302 88.9358 113.278 88.9358 113.278C88.9358 113.278 88.7146 107.361 88.5466 106.739C88.4666 106.441 88.0721 106.504 87.6828 106.654C87.3911 106.773 87.1093 106.915 86.8404 107.079C86.8404 107.079 85.5021 108.402 85.9153 109.916Z" fill="black"/>
<path opacity="0.1" d="M69.701 97.9213C69.701 97.9213 72.0364 98.6771 74.0145 101.365L69.701 97.9213Z" fill="black"/>
<g opacity="0.1">
<path d="M88.6719 68.7461C88.6719 68.7647 88.6719 68.7807 88.6586 68.7993C88.6361 68.8687 88.6085 68.9363 88.5759 69.0016C88.6016 68.9142 88.6337 68.8288 88.6719 68.7461Z" fill="black"/>
<path d="M75.4648 67.5671C75.5044 67.3969 75.5653 67.2324 75.6461 67.0774C75.6461 67.1173 75.6195 67.1599 75.6088 67.2025C75.5199 67.7413 75.5573 68.2934 75.7181 68.8153C75.7534 69.0963 75.8933 69.3538 76.11 69.5366C76.4726 69.7681 77.0351 69.5659 77.331 69.8773C77.5176 70.0769 77.5283 70.4309 77.7735 70.5533C77.8649 70.5932 77.9663 70.6043 78.0641 70.5852C78.712 70.4947 79.0852 69.7655 79.709 69.5632C80.0719 69.4699 80.4558 69.5037 80.7967 69.659C80.9365 69.7017 81.0619 69.7818 81.1593 69.8906C81.3672 70.1567 81.2206 70.5533 81.3166 70.878C81.4499 71.3304 81.9911 71.5088 82.4576 71.5673C82.9241 71.6259 83.452 71.6605 83.7639 72.0144C83.8672 72.1456 83.9414 72.2972 83.9814 72.4592C84.0214 72.6212 84.0263 72.7899 83.9959 72.9539C83.9679 73.0685 83.9679 73.188 83.9959 73.3026C84.1238 73.6672 84.7556 73.6113 84.9209 73.3239C85.0436 73.1136 85.0062 72.9406 85.2915 72.8821C85.4952 72.8673 85.6994 72.9029 85.886 72.9859C86.3917 73.1587 86.9246 73.239 87.4589 73.2228C87.8995 73.2295 88.3312 73.0983 88.6932 72.8475C88.8515 72.7234 88.9807 72.5662 89.0718 72.387C88.9895 72.713 88.8021 73.0029 88.5386 73.2121C88.1766 73.4629 87.7449 73.5941 87.3043 73.5874C86.77 73.6036 86.2371 73.5234 85.7314 73.3505C85.5448 73.2675 85.3406 73.2319 85.1369 73.2467C84.8516 73.3053 84.8889 73.4783 84.769 73.6885C84.601 73.976 83.9692 74.0318 83.8412 73.6672C83.8146 73.5525 83.8146 73.4333 83.8412 73.3186C83.8717 73.1545 83.8667 72.9858 83.8267 72.8238C83.7868 72.6618 83.7126 72.5102 83.6093 72.3791C83.2974 72.0251 82.7722 71.9931 82.303 71.9319C81.8338 71.8707 81.2952 71.6951 81.162 71.2426C81.066 70.9179 81.2126 70.5214 81.0047 70.2552C80.908 70.1468 80.7836 70.0667 80.6448 70.0236C80.3026 69.8696 79.9182 69.8359 79.5544 69.9278C78.9332 70.1301 78.5573 70.8594 77.9095 70.9498C77.8116 70.9689 77.7103 70.9578 77.6189 70.9179C77.3736 70.7955 77.3523 70.4415 77.1764 70.2419C76.8804 69.9305 76.3206 70.1328 75.958 69.9012C75.7398 69.7194 75.5987 69.4616 75.5635 69.18C75.4049 68.6574 75.3711 68.105 75.4648 67.5671Z" fill="black"/>
</g>
<path opacity="0.1" d="M89.0505 87.0278C88.6026 87.6293 88.0934 88.1855 87.6988 88.819C87.2703 89.4434 87.062 90.1925 87.107 90.9482C87.5149 90.5303 87.7042 89.9501 87.9601 89.4258C88.3973 88.5369 89.0478 87.7836 89.5997 86.9692C89.7036 86.8122 90.3754 85.9046 90.0369 85.8674C89.7543 85.8275 89.2024 86.8229 89.0505 87.0278Z" fill="black"/>
<path d="M91.4498 143.975C91.7724 145.008 92.0976 146.043 92.5002 147.047C93.2255 148.791 94.1381 150.452 95.2221 152C95.921 153.019 96.672 154.002 97.4722 154.943C98.4746 156.122 99.6049 157.31 99.9462 158.816C100.151 159.686 100.082 160.594 100.167 161.477C100.253 162.361 100.543 163.308 101.266 163.841C101.78 164.221 102.439 164.336 103.071 164.434C103.524 164.506 104.089 164.53 104.324 164.139C104.406 163.979 104.449 163.802 104.449 163.623L104.558 162.321C104.58 162.039 104.681 161.68 104.963 161.666C105.246 161.653 105.387 162.028 105.627 162.199C105.947 162.422 106.427 162.199 106.603 161.861C106.749 161.495 106.759 161.089 106.63 160.716C106.436 159.975 106.086 159.284 105.605 158.688C105.124 158.091 104.522 157.604 103.838 157.256C103.364 157.065 102.908 156.829 102.479 156.551C102.043 156.172 101.681 155.716 101.412 155.204C98.9384 151.138 96.4511 147.049 94.7049 142.623C94.3609 141.833 94.1285 140.998 94.0144 140.143C93.9291 139.273 94.0651 138.397 94.1211 137.524C94.2244 135.956 94.0786 134.381 93.6892 132.858C93.6041 132.459 93.4537 132.076 93.244 131.725C92.5242 130.636 90.8446 130.474 89.7783 131.224C89.3856 131.526 89.0601 131.906 88.8223 132.34C88.5846 132.773 88.4399 133.252 88.3973 133.745C88.32 134.628 88.8292 135.544 89.0878 136.366C89.8716 138.905 90.6589 141.442 91.4498 143.975Z" fill="#A1616A"/>
<path opacity="0.05" d="M91.4498 143.975C91.7724 145.008 92.0976 146.043 92.5002 147.047C93.2255 148.791 94.1381 150.452 95.2221 152C95.921 153.019 96.672 154.002 97.4722 154.943C98.4746 156.122 99.6049 157.31 99.9462 158.816C100.151 159.686 100.082 160.594 100.167 161.477C100.253 162.361 100.543 163.308 101.266 163.841C101.78 164.221 102.439 164.336 103.071 164.434C103.524 164.506 104.089 164.53 104.324 164.139C104.406 163.979 104.449 163.802 104.449 163.623L104.558 162.321C104.58 162.039 104.681 161.68 104.963 161.666C105.246 161.653 105.387 162.028 105.627 162.199C105.947 162.422 106.427 162.199 106.603 161.861C106.749 161.495 106.759 161.089 106.63 160.716C106.436 159.975 106.086 159.284 105.605 158.688C105.124 158.091 104.522 157.604 103.838 157.256C103.364 157.065 102.908 156.829 102.479 156.551C102.043 156.172 101.681 155.716 101.412 155.204C98.9384 151.138 96.4511 147.049 94.7049 142.623C94.3609 141.833 94.1285 140.998 94.0144 140.143C93.9291 139.273 94.0651 138.397 94.1211 137.524C94.2244 135.956 94.0786 134.381 93.6892 132.858C93.6041 132.459 93.4537 132.076 93.244 131.725C92.5242 130.636 90.8446 130.474 89.7783 131.224C89.3856 131.526 89.0601 131.906 88.8223 132.34C88.5846 132.773 88.4399 133.252 88.3973 133.745C88.32 134.628 88.8292 135.544 89.0878 136.366C89.8716 138.905 90.6589 141.442 91.4498 143.975Z" fill="black"/>
<path d="M75.9074 187.459C76.3897 187.626 76.9026 187.688 77.411 187.64C77.4483 187.225 78.0081 187.131 78.424 187.153C78.6252 187.146 78.8246 187.192 79.0025 187.286C79.1065 187.352 79.1865 187.448 79.2878 187.517C79.4684 187.616 79.671 187.668 79.877 187.669L82.0417 187.85C83.0068 187.933 84.0118 188.007 84.9156 187.664C85.0956 187.607 85.2556 187.5 85.3768 187.355C85.6221 187.004 85.3768 186.501 85.0382 186.245C84.6996 185.99 84.2624 185.875 83.9212 185.614C83.1694 185.042 83.0654 183.972 82.6682 183.115C82.3859 182.575 82.0375 182.072 81.6311 181.617C81.3367 181.226 80.9936 180.875 80.6101 180.571C79.741 179.945 78.7439 179.959 77.7229 179.868C77.0031 179.804 76.3259 179.762 75.8087 180.401C75.1689 181.199 75.4248 182.796 75.4648 183.727C75.5148 184.981 75.6627 186.228 75.9074 187.459Z" fill="#514E7F"/>
<path opacity="0.05" d="M75.9074 187.459C76.3897 187.626 76.9026 187.688 77.411 187.64C77.4483 187.225 78.0081 187.131 78.424 187.153C78.6252 187.146 78.8246 187.192 79.0025 187.286C79.1065 187.352 79.1865 187.448 79.2878 187.517C79.4684 187.616 79.671 187.668 79.877 187.669L82.0417 187.85C83.0068 187.933 84.0118 188.007 84.9156 187.664C85.0956 187.607 85.2556 187.5 85.3768 187.355C85.6221 187.004 85.3768 186.501 85.0382 186.245C84.6996 185.99 84.2624 185.875 83.9212 185.614C83.1694 185.042 83.0654 183.972 82.6682 183.115C82.3859 182.575 82.0375 182.072 81.6311 181.617C81.3367 181.226 80.9936 180.875 80.6101 180.571C79.741 179.945 78.7439 179.959 77.7229 179.868C77.0031 179.804 76.3259 179.762 75.8087 180.401C75.1689 181.199 75.4248 182.796 75.4648 183.727C75.5148 184.981 75.6627 186.228 75.9074 187.459Z" fill="black"/>
<path d="M76.7818 145.421C76.1207 145.634 75.8327 146.456 75.9554 147.14C76.078 147.824 76.4886 148.415 76.8271 149.022C77.7922 150.744 78.2081 152.713 79.0185 154.51C79.6237 155.84 80.4421 157.091 81.0393 158.438C81.6365 159.785 82.0071 161.304 81.6445 162.734C81.4685 163.428 81.1273 164.064 80.9007 164.748C80.6764 165.49 80.5299 166.252 80.4635 167.024C80.1699 169.645 80.1173 172.287 80.3062 174.918C80.3078 175.239 80.3749 175.556 80.5035 175.849C80.6394 176.116 80.874 176.382 80.7701 176.648C80.7247 176.757 80.6261 176.837 80.5781 176.943C80.4395 177.241 80.7167 177.558 80.97 177.771C80.9248 177.851 80.864 177.921 80.7912 177.977C80.7184 178.034 80.6351 178.075 80.5461 178.098C80.7278 178.214 80.8674 178.385 80.9442 178.586C81.021 178.786 81.031 179.007 80.9727 179.214C80.7487 179.248 80.7354 179.591 80.8767 179.772C81.018 179.953 81.2419 180.065 81.3432 180.27C81.4029 180.437 81.3964 180.62 81.325 180.783C81.2536 180.945 81.1228 181.074 80.9593 181.143C80.6263 181.271 80.263 181.299 79.9143 181.223C79.3231 181.141 78.7393 181.013 78.1681 180.84C77.8695 180.781 77.6021 180.617 77.415 180.377C77.2279 180.138 77.1337 179.839 77.1497 179.536C77.0177 178.452 76.9776 177.36 77.0297 176.27C77.123 170.99 77.0297 165.704 76.8005 160.426C76.7072 158.297 76.0673 156.234 75.2436 154.275C74.7882 153.274 74.2819 152.297 73.7266 151.348C72.5376 149.176 71.4872 146.77 71.7592 144.308C71.7885 144.042 71.8845 143.725 72.1484 143.683C72.2516 143.672 72.3558 143.689 72.4497 143.733C72.9973 143.989 73.5272 144.28 74.0359 144.606C74.8717 145.096 75.814 145.375 76.7818 145.421Z" fill="#464353"/>
<path opacity="0.05" d="M76.7818 145.421C76.1207 145.634 75.8327 146.456 75.9554 147.14C76.078 147.824 76.4886 148.415 76.8271 149.022C77.7922 150.744 78.2081 152.713 79.0185 154.51C79.6237 155.84 80.4421 157.091 81.0393 158.438C81.6365 159.785 82.0071 161.304 81.6445 162.734C81.4685 163.428 81.1273 164.064 80.9007 164.748C80.6764 165.49 80.5299 166.252 80.4635 167.024C80.1699 169.645 80.1173 172.287 80.3062 174.918C80.3078 175.239 80.3749 175.556 80.5035 175.849C80.6394 176.116 80.874 176.382 80.7701 176.648C80.7247 176.757 80.6261 176.837 80.5781 176.943C80.4395 177.241 80.7167 177.558 80.97 177.771C80.9248 177.851 80.864 177.921 80.7912 177.977C80.7184 178.034 80.6351 178.075 80.5461 178.098C80.7278 178.214 80.8674 178.385 80.9442 178.586C81.021 178.786 81.031 179.007 80.9727 179.214C80.7487 179.248 80.7354 179.591 80.8767 179.772C81.018 179.953 81.2419 180.065 81.3432 180.27C81.4029 180.437 81.3964 180.62 81.325 180.783C81.2536 180.945 81.1228 181.074 80.9593 181.143C80.6263 181.271 80.263 181.299 79.9143 181.223C79.3231 181.141 78.7393 181.013 78.1681 180.84C77.8695 180.781 77.6021 180.617 77.415 180.377C77.2279 180.138 77.1337 179.839 77.1497 179.536C77.0177 178.452 76.9776 177.36 77.0297 176.27C77.123 170.99 77.0297 165.704 76.8005 160.426C76.7072 158.297 76.0673 156.234 75.2436 154.275C74.7882 153.274 74.2819 152.297 73.7266 151.348C72.5376 149.176 71.4872 146.77 71.7592 144.308C71.7885 144.042 71.8845 143.725 72.1484 143.683C72.2516 143.672 72.3558 143.689 72.4497 143.733C72.9973 143.989 73.5272 144.28 74.0359 144.606C74.8717 145.096 75.814 145.375 76.7818 145.421Z" fill="black"/>
<path d="M67.8429 139.001C67.4982 138.78 67.1006 138.655 66.6912 138.639C66.2167 138.663 65.8115 138.975 65.4409 139.273C65.0018 139.609 64.5851 139.974 64.1932 140.364C63.3819 141.227 62.8166 142.292 62.5559 143.447C62.2953 144.602 62.3488 145.805 62.711 146.932C63.1029 148.106 63.82 149.141 64.5292 150.156L65.9688 152.221C68.1655 155.369 70.3622 158.518 72.6629 161.592C72.6634 161.667 72.688 161.741 72.733 161.802C72.7781 161.862 72.8413 161.907 72.9135 161.93C72.9962 161.951 73.1002 161.949 73.1508 162.018C73.1742 162.061 73.1844 162.11 73.1801 162.159C73.175 162.386 73.1317 162.611 73.0522 162.824C73.0148 162.894 73.0053 162.976 73.0255 163.053C73.1002 163.226 73.4147 163.128 73.516 163.29C73.5827 163.396 73.5 163.535 73.4121 163.625C73.3241 163.716 73.2148 163.817 73.2308 163.942C73.2468 164.067 73.4654 164.208 73.4574 164.362C73.4574 164.453 73.3774 164.522 73.3214 164.594C73.2431 164.709 73.2074 164.847 73.2205 164.985C73.2337 165.123 73.2948 165.252 73.3934 165.35C73.5454 166.851 72.7269 168.278 72.5643 169.773C72.2977 172.137 73.3774 174.444 73.508 176.816C73.5002 177.082 73.5512 177.348 73.6573 177.593C73.8786 178.003 74.4571 178.25 74.4278 178.716C74.386 178.907 74.3316 179.096 74.2652 179.28C74.2199 179.546 74.3478 179.812 74.3531 180.079C74.3585 180.345 74.1212 180.672 73.8706 180.566C74.059 181.194 74.227 181.827 74.3745 182.466L79.4131 182.881C79.4674 182.429 79.4522 181.971 79.3678 181.524C79.2638 181.037 79.0452 180.584 78.9306 180.102C78.856 179.865 78.8351 179.615 78.8692 179.368C78.9033 179.122 78.9916 178.887 79.1278 178.679C78.9965 178.68 78.8688 178.635 78.7674 178.552C78.6659 178.469 78.5972 178.352 78.5733 178.223C78.5312 177.964 78.5357 177.699 78.5867 177.441C78.72 176.129 78.1681 174.835 78.1841 173.518C78.2001 172.48 78.5653 171.482 78.7493 170.463C79.1438 168.28 78.7333 165.914 79.7064 163.921C80.2955 162.72 81.1113 161.39 80.4502 160.227C80.1249 159.652 79.5491 159.258 79.1732 158.715C78.8667 158.202 78.6368 157.647 78.4907 157.067C77.7149 154.672 76.4592 152.447 75.3582 150.169C75.0526 149.598 74.8257 148.988 74.6837 148.356C74.6059 147.802 74.5774 147.242 74.5984 146.682C74.5984 145.678 74.537 144.674 74.4145 143.677C74.3896 143.241 74.2646 142.816 74.0492 142.435C73.8317 142.146 73.56 141.903 73.2494 141.719C71.5966 140.587 69.6291 139.941 67.8429 139.001Z" fill="#464353"/>
<path d="M73.8812 189.303C74.365 189.468 74.8784 189.529 75.3875 189.482C75.4248 189.066 75.982 188.973 76.3979 188.994C76.599 188.988 76.7984 189.034 76.9764 189.128C77.0804 189.194 77.1604 189.293 77.2643 189.359C77.4445 189.459 77.6473 189.511 77.8535 189.511L80.0156 189.692C80.9833 189.774 81.9857 189.851 82.8921 189.505C83.0719 189.449 83.2313 189.342 83.3507 189.197C83.5959 188.845 83.3507 188.345 83.0121 188.09C82.6735 187.834 82.2363 187.717 81.8977 187.456C81.1433 186.884 81.042 185.817 80.6421 184.96C80.3623 184.418 80.0147 183.913 79.6077 183.459C79.3123 183.069 78.9682 182.718 78.584 182.415C77.7175 181.787 76.7178 181.8 75.6994 181.71C74.977 181.646 74.2998 181.606 73.7853 182.242C73.1454 183.041 73.4014 184.638 73.4387 185.572C73.4888 186.825 73.6368 188.073 73.8812 189.303Z" fill="#514E7F"/>
<path d="M96.2139 130.29C98.9701 130.29 101.204 128.06 101.204 125.308C101.204 122.556 98.9701 120.326 96.2139 120.326C93.4576 120.326 91.2232 122.556 91.2232 125.308C91.2232 128.06 93.4576 130.29 96.2139 130.29Z" fill="#A1616A"/>
<path d="M91.5058 126.788C90.7913 127.402 89.7649 127.448 88.8265 127.544C86.8199 127.749 84.8667 128.314 83.0601 129.21C82.81 129.317 82.5836 129.473 82.3936 129.667C82.2314 129.879 82.116 130.122 82.055 130.381C81.8834 130.941 81.8191 131.529 81.8657 132.113C81.9311 132.68 82.0944 133.231 82.3483 133.742C83.0409 135.174 84.1097 136.391 85.4408 137.263C85.6753 137.438 85.9415 137.565 86.2246 137.639C86.8804 137.774 87.5149 137.396 88.1627 137.226C88.752 137.073 89.373 137.092 89.9515 137.282C90.4847 137.463 91.0686 137.793 91.5964 137.572C91.9343 137.383 92.1969 137.085 92.3402 136.726C92.8501 135.764 93.3049 134.774 93.7025 133.761C93.8454 133.365 94.01 132.978 94.1957 132.6C94.7742 131.501 95.774 130.652 96.2725 129.51C96.3231 129.423 96.3537 129.326 96.362 129.226C96.3703 129.125 96.3561 129.024 96.3205 128.93C96.2281 128.803 96.1001 128.706 95.9526 128.651C95.2154 128.229 94.5437 127.703 93.9585 127.088C93.6305 126.774 93.028 125.925 92.5562 125.851C92.0256 125.76 91.8657 126.479 91.5058 126.788Z" fill="#A1616A"/>
<path d="M91.6231 136.912C91.0446 137.178 90.3621 137.064 89.7356 136.933C88.1201 136.595 86.4858 136.255 84.9902 135.557C84.523 135.379 84.1181 135.068 83.8252 134.663C83.6433 134.317 83.5327 133.938 83.5 133.548L83.2334 131.685C83.1374 131.038 83.3027 130.439 83.3187 129.785C83.3289 129.712 83.3244 129.638 83.3057 129.567C83.2869 129.496 83.2542 129.43 83.2094 129.372C83.1181 129.295 83.0002 129.258 82.8815 129.268C82.1323 129.282 81.6791 130.067 81.1539 130.599C80.8504 130.906 80.4876 131.149 80.0876 131.312C79.6077 131.509 79.0212 131.648 78.8212 132.127C78.7413 132.326 78.7519 132.552 78.6666 132.752C78.3307 133.551 76.8991 133.284 76.5339 134.083C76.4299 134.306 76.4379 134.586 76.2673 134.762C76.0967 134.937 75.7767 134.935 75.5128 134.977C74.4704 135.147 73.9666 136.348 73.0761 136.915C72.327 137.394 71.3619 137.383 70.5542 137.756C70.1063 137.963 69.7091 138.288 69.2345 138.424C68.76 138.559 68.2241 138.488 67.7149 138.501C67.6606 138.496 67.6059 138.502 67.554 138.519C67.5022 138.536 67.4544 138.563 67.4137 138.599C67.382 138.648 67.3611 138.702 67.3524 138.759C67.3437 138.816 67.3473 138.874 67.363 138.929C67.6099 140.503 68.2632 141.986 69.2584 143.231C70.2536 144.476 71.5565 145.441 73.0388 146.03C73.2109 146.085 73.3743 146.164 73.524 146.264C73.9772 146.602 74.0572 147.329 74.5717 147.569C74.7574 147.634 74.9576 147.646 75.15 147.605C75.3425 147.564 75.5197 147.47 75.6621 147.334C75.946 147.061 76.213 146.772 76.4619 146.467C76.9317 145.977 77.5483 145.653 78.2187 145.543C78.8372 145.445 79.5277 145.517 80.0289 145.136C80.2339 144.948 80.4246 144.745 80.5994 144.529C80.9708 144.183 81.4115 143.92 81.8924 143.757C83.2065 143.239 84.5953 142.934 86.006 142.855C87.3203 142.783 88.6719 142.903 89.9142 142.477C90.2368 142.377 90.5341 142.209 90.786 141.985C91.0531 141.696 91.2518 141.352 91.3672 140.976C91.8154 139.669 91.9037 138.265 91.6231 136.912Z" fill="#3A8ACA"/>
<path d="M85.1902 129.569C85.5581 129.534 85.9287 129.569 86.2992 129.569C86.7338 129.569 87.163 129.463 87.5975 129.46C88.2857 129.471 88.9522 129.701 89.4999 130.118C90.0476 130.534 90.4478 131.114 90.642 131.773C90.6787 131.878 90.6851 131.991 90.6607 132.1C90.6464 132.154 90.6132 132.2 90.5671 132.232C90.5211 132.263 90.4654 132.277 90.4101 132.27C90.2658 131.877 90.0771 131.501 89.8476 131.15C89.4344 130.587 88.8455 130.177 88.1734 129.984C87.5033 129.795 86.7973 129.769 86.1153 129.91C85.83 129.963 85.5528 130.037 85.2755 130.115L83.9425 130.482C83.6973 130.548 83.4493 130.615 83.2121 130.703C83.0281 130.772 82.7135 131.025 82.5323 131.035C82.287 131.035 82.4843 130.823 82.5936 130.679C82.8112 130.382 83.1159 130.161 83.4653 130.045C84.0193 129.819 84.5984 129.659 85.1902 129.569Z" fill="#3A8ACA"/>
<path d="M88.5546 144.534C88.8772 145.567 89.1998 146.602 89.605 147.606C90.3292 149.351 91.2419 151.011 92.3269 152.559C93.0258 153.578 93.7768 154.56 94.577 155.502C95.5767 156.681 96.6937 157.868 97.051 159.372C97.2562 160.245 97.1869 161.153 97.2722 162.034C97.3575 162.915 97.6481 163.865 98.3679 164.397C98.8851 164.775 99.5436 164.889 100.175 164.991C100.626 165.062 101.191 165.086 101.428 164.695C101.509 164.535 101.552 164.358 101.554 164.179L101.66 162.877C101.684 162.595 101.786 162.236 102.066 162.223C102.346 162.209 102.492 162.585 102.732 162.755C103.052 162.978 103.532 162.755 103.708 162.417C103.853 162.051 103.862 161.645 103.734 161.272C103.539 160.532 103.19 159.841 102.709 159.245C102.228 158.649 101.626 158.161 100.943 157.812C100.468 157.621 100.012 157.385 99.5809 157.107C99.1438 156.728 98.7821 156.27 98.5146 155.758C96.0379 151.694 93.5506 147.606 91.8071 143.177C91.4632 142.387 91.2299 141.553 91.1139 140.699C91.0313 139.829 91.1646 138.953 91.2232 138.08C91.3265 136.512 91.1808 134.937 90.7913 133.415C90.7064 133.014 90.555 132.631 90.3435 132.281C89.6263 131.19 87.9441 131.03 86.8777 131.781C86.4847 132.082 86.1587 132.462 85.9205 132.896C85.6824 133.329 85.5371 133.808 85.4941 134.301C85.4168 135.185 85.9287 136.1 86.1846 136.923C86.9719 139.463 87.7619 142.001 88.5546 144.534Z" fill="#A1616A"/>
<path d="M103.473 121.784C103.513 121.369 103.14 120.986 102.716 120.72C102.27 120.491 101.841 120.23 101.434 119.937C101.055 119.61 100.847 119.184 100.469 118.856C100.038 118.529 99.5499 118.286 99.0291 118.141C97.9213 117.753 96.7584 117.545 95.5847 117.526C94.3984 117.526 93.1854 117.792 92.2923 118.396C92.0719 118.534 91.8815 118.715 91.7324 118.928C91.5916 119.184 91.5011 119.464 91.4658 119.753C91.253 120.646 90.965 121.52 90.6047 122.364C90.2342 123.304 89.8396 124.278 88.9678 125.005C88.0348 125.779 86.6085 126.226 85.9926 127.163C85.9245 127.246 85.8768 127.344 85.8532 127.449C85.8296 127.554 85.8308 127.663 85.8567 127.767C85.9447 128.004 86.2272 128.166 86.4885 128.315C88.0028 129.183 89.3091 130.309 89.9809 131.653C90.6527 132.997 90.634 134.581 89.677 135.818C89.3251 136.276 88.8399 136.819 89.1838 137.279C89.717 137.979 91.5005 137.577 91.9164 138.317C92.047 138.554 91.9697 138.823 91.9697 139.081C91.9697 139.858 92.7188 140.548 93.6279 140.907C94.537 141.266 95.59 141.351 96.6138 141.397C96.8855 140.787 96.9123 140.096 96.6884 139.467C96.6202 139.331 96.5933 139.179 96.6111 139.028C96.6874 138.86 96.8059 138.716 96.955 138.607C98.048 137.575 97.8161 136.058 97.1603 134.831C96.5045 133.604 95.4807 132.483 95.0995 131.192C94.9102 130.551 94.9102 129.83 95.4194 129.297C95.7117 129.041 96.0267 128.813 96.3605 128.613C96.9568 128.209 97.4161 127.634 97.6775 126.963C97.9841 126.114 97.9441 125.1 98.8345 124.528C99.6903 123.996 100.893 124.15 101.839 123.786C102.567 123.498 103.415 122.394 103.473 121.784Z" fill="#464353"/>
</g>
<defs>
<linearGradient id="paint0_linear_41_32" x1="81.5272" y1="113.129" x2="81.5272" y2="62.3213" gradientUnits="userSpaceOnUse">
<stop stop-color="#808080" stop-opacity="0.25"/>
<stop offset="0.54" stop-color="#808080" stop-opacity="0.12"/>
<stop offset="1" stop-color="#808080" stop-opacity="0.1"/>
</linearGradient>
<clipPath id="clip0_41_32">
<rect width="314" height="193" fill="white"/>
</clipPath>
</defs>
</svg>
