<svg width="610" height="720" viewBox="0 0 610 720" fill="none" xmlns="http://www.w3.org/2000/svg">
<g clip-path="url(#clip0_205_1000)">
<path d="M599.291 705.648C595.841 710.294 591.564 714.266 586.674 717.364C585.634 718.023 584.567 718.645 583.48 719.22H557.921C558.227 718.607 558.525 717.986 558.813 717.364C566.737 700.655 569.222 681.884 565.918 663.69C562.614 645.497 553.688 628.795 540.393 615.933C555.841 620.701 570.12 629.997 579.46 643.179C583.998 649.598 587.226 656.849 588.958 664.515C590.501 649.183 588.048 633.712 581.837 619.607C594.38 629.802 604.147 643.763 607.87 659.478C611.592 675.202 608.891 692.651 599.291 705.648Z" fill="#F0F0F0"/>
<path d="M609.645 720H370.358V718.046H610L609.645 720Z" fill="#3F3D56"/>
<path d="M286.645 244.227C286.645 280.072 274.112 310.676 250.261 333.45C233.336 349.619 207.266 372.282 207.266 396.244V416.068H127.887V396.244C127.887 372.032 101.715 349.322 84.8921 333.45C61.5797 311.474 48.5077 278.792 48.5077 244.227V243.494C48.6101 211.944 61.2503 181.726 83.6483 159.487C106.046 137.248 136.368 124.809 167.943 124.906C199.519 125.003 229.763 137.629 252.023 160.005C274.284 182.381 286.737 212.676 286.645 244.227Z" fill="#3A8ACA"/>
<path d="M207.265 418.852C206.526 418.852 205.818 418.559 205.296 418.037C204.773 417.515 204.48 416.807 204.48 416.069V396.241C204.48 372.933 227.485 351.175 244.284 335.288C245.676 333.968 247.033 332.69 248.334 331.442C271.572 309.245 283.855 279.088 283.855 244.229C283.855 179.079 232.78 128.045 167.578 128.045H167.25C136.565 128.079 107.143 140.251 85.4148 161.901C63.687 183.55 51.422 212.915 51.3012 243.575V244.224C51.3012 278.362 64.2424 310.147 86.8084 331.431C87.9512 332.51 89.1387 333.621 90.3577 334.761C107.373 350.679 130.676 372.478 130.676 396.242V416.069C130.676 416.807 130.382 417.515 129.86 418.037C129.338 418.559 128.629 418.852 127.891 418.852C127.152 418.852 126.443 418.559 125.921 418.037C125.399 417.515 125.105 416.807 125.105 416.069V396.241C125.105 374.891 102.823 354.045 86.5502 338.818C85.3257 337.674 84.137 336.559 82.9842 335.474C59.3097 313.143 45.7308 279.884 45.7308 244.225V243.557C45.9165 176.723 100.4 122.475 167.241 122.475H167.586C199.732 122.308 230.629 134.908 253.478 157.502C276.327 180.097 289.258 210.836 289.425 242.957C289.427 243.381 289.427 243.805 289.425 244.229C289.425 280.644 276.547 312.193 252.185 335.466C250.876 336.715 249.514 338.004 248.113 339.329C232.051 354.522 210.048 375.329 210.048 396.241V416.069C210.048 416.807 209.754 417.515 209.232 418.037C208.71 418.559 208.001 418.852 207.262 418.852H207.265Z" fill="#3F3D56"/>
<path d="M194.037 454.562H141.118C139.886 454.562 138.706 454.074 137.835 453.204C136.965 452.334 136.476 451.154 136.476 449.924C136.476 448.694 136.965 447.514 137.835 446.644C138.706 445.774 139.886 445.286 141.118 445.286H194.037C195.268 445.286 196.449 445.774 197.32 446.644C198.19 447.514 198.679 448.694 198.679 449.924C198.679 451.154 198.19 452.334 197.32 453.204C196.449 454.074 195.268 454.562 194.037 454.562Z" fill="#3A8ACA"/>
<path d="M173.268 485.639H161.879C157.923 485.642 154.041 484.567 150.65 482.531C150.148 482.238 149.758 481.785 149.545 481.244C149.331 480.703 149.306 480.106 149.473 479.549C149.626 478.977 149.964 478.472 150.434 478.113C150.905 477.753 151.481 477.559 152.074 477.562H183.073C183.665 477.559 184.242 477.753 184.712 478.113C185.183 478.472 185.521 478.977 185.674 479.549C185.841 480.106 185.815 480.703 185.602 481.244C185.388 481.785 184.999 482.238 184.496 482.531C181.105 484.567 177.224 485.642 173.268 485.639Z" fill="#3F3D56"/>
<path d="M194.046 469.214L140.813 469.208L140.648 468.855C140.491 468.205 140.484 467.528 140.629 466.876C140.774 466.223 141.066 465.612 141.483 465.09C141.906 464.554 142.445 464.121 143.06 463.824C143.675 463.527 144.35 463.374 145.032 463.375H190.114C190.797 463.374 191.472 463.527 192.086 463.824C192.701 464.122 193.241 464.554 193.664 465.09C194.077 465.606 194.368 466.208 194.515 466.852C194.661 467.496 194.659 468.165 194.509 468.808L194.426 469.166L194.046 469.214Z" fill="#3F3D56"/>
<path d="M44.47 134.893C43.3478 134.895 42.2635 134.488 41.4192 133.75L1.55414 98.9796C0.640908 98.1667 0.0856296 97.0265 0.0090045 95.8069C-0.0676206 94.5872 0.340604 93.3866 1.14493 92.4659C1.94925 91.5453 3.08468 90.9791 4.3045 90.8902C5.52432 90.8014 6.72994 91.1971 7.65936 91.9915L47.5244 126.761C48.2365 127.382 48.7419 128.206 48.9731 129.121C49.2042 130.037 49.1502 131.002 48.8181 131.886C48.4861 132.77 47.8918 133.532 47.1148 134.069C46.3378 134.607 45.4151 134.895 44.47 134.894V134.893Z" fill="#E4E4E4"/>
<path d="M284.073 134.893C283.128 134.894 282.205 134.606 281.428 134.068C280.651 133.531 280.057 132.769 279.725 131.885C279.392 131 279.338 130.036 279.57 129.12C279.801 128.205 280.306 127.381 281.018 126.76L320.882 91.9876C321.812 91.1932 323.017 90.7975 324.237 90.8863C325.457 90.9751 326.592 91.5414 327.397 92.4621C328.201 93.3827 328.609 94.5833 328.533 95.803C328.456 97.0227 327.901 98.1628 326.988 98.9757L287.122 133.746C286.279 134.485 285.195 134.893 284.073 134.893Z" fill="#E4E4E4"/>
<path d="M207.265 438.101H127.886C126.655 438.101 125.474 437.612 124.604 436.742C123.733 435.873 123.244 434.693 123.244 433.463C123.244 432.232 123.733 431.053 124.604 430.183C125.474 429.313 126.655 428.824 127.886 428.824H207.265C208.496 428.824 209.677 429.313 210.548 430.183C211.418 431.053 211.907 432.232 211.907 433.463C211.907 434.693 211.418 435.873 210.548 436.742C209.677 437.612 208.496 438.101 207.265 438.101Z" fill="#3A8ACA"/>
<path d="M165.627 316.928L149.12 416.068H139.696L156.463 315.407C156.665 314.193 157.342 313.109 158.344 312.393C159.346 311.677 160.591 311.388 161.806 311.59C163.022 311.791 164.107 312.467 164.823 313.468C165.54 314.47 165.829 315.714 165.627 316.928Z" fill="#E6E6E6"/>
<path d="M197.351 416.068H187.927L171.42 316.928C171.218 315.714 171.507 314.47 172.224 313.468C172.94 312.467 174.025 311.791 175.24 311.59C176.456 311.388 177.701 311.677 178.703 312.393C179.705 313.109 180.382 314.193 180.583 315.407L197.351 416.068Z" fill="#E6E6E6"/>
<path d="M137.407 313.616C137.407 312.386 137.896 311.206 138.767 310.337C139.637 309.467 140.818 308.978 142.049 308.978H193.105C194.337 308.978 195.517 309.467 196.388 310.337C197.258 311.206 197.748 312.386 197.748 313.616C197.748 314.847 197.258 316.026 196.388 316.896C195.517 317.766 194.337 318.255 193.105 318.255H142.049C140.818 318.255 139.637 317.766 138.767 316.896C137.896 316.026 137.407 314.847 137.407 313.616Z" fill="#E6E6E6"/>
<path d="M167.577 88.5924C166.346 88.5924 165.166 88.1037 164.295 87.2338C163.424 86.364 162.935 85.1842 162.935 83.954V4.63834C162.935 3.40818 163.424 2.2284 164.295 1.35854C165.166 0.488681 166.346 0 167.577 0C168.809 0 169.989 0.488681 170.86 1.35854C171.73 2.2284 172.219 3.40818 172.219 4.63834V83.954C172.219 85.1842 171.73 86.364 170.86 87.2338C169.989 88.1037 168.809 88.5924 167.577 88.5924Z" fill="#E4E4E4"/>
<path d="M547.038 707.022H535.657L530.243 663.154H547.04L547.038 707.022Z" fill="#FEB8B8"/>
<path d="M549.941 718.047H513.24V717.583C513.24 713.797 514.745 710.167 517.424 707.491C520.102 704.814 523.735 703.31 527.524 703.31H549.941L549.941 718.047Z" fill="#2F2E41"/>
<path d="M460.568 706.647L449.572 703.709L455.681 659.933L471.91 664.269L460.568 706.647Z" fill="#FEB8B8"/>
<path d="M460.523 718.046L425.068 708.573L425.188 708.125C426.166 704.468 428.559 701.349 431.839 699.454C435.119 697.56 439.018 697.045 442.678 698.022L464.333 703.808L460.523 718.046Z" fill="#2F2E41"/>
<path d="M553.586 461.179L563.12 472.247L550.791 697.153H524.452L511.176 524.095L470.002 701.794L442.621 695.084L467.518 469.382L553.586 461.179Z" fill="#2F2E41"/>
<path d="M473.883 315.975L500.107 302.828L540.434 303.537L575.138 321.28L555.393 419.815L563.922 471.19C530.956 479.59 496.443 479.874 463.343 472.017L463.079 471.954C463.079 471.954 482.681 402.457 474.337 381.248L473.883 315.975Z" fill="#E6E6E6"/>
<path d="M549.749 263.461C549.72 255.599 546.57 248.07 540.991 242.526C535.411 236.983 527.859 233.877 519.991 233.892C512.122 233.906 504.581 237.04 499.022 242.604C493.464 248.169 490.342 255.709 490.342 263.571C490.342 271.433 493.464 278.974 499.022 284.539C504.581 290.103 512.122 293.237 519.991 293.251C527.859 293.266 535.411 290.16 540.991 284.616C546.57 279.073 549.72 271.543 549.749 263.681V263.461Z" fill="#FEB8B8"/>
<path d="M470.264 387.815C470.828 389.263 471.704 390.571 472.828 391.644C473.953 392.718 475.3 393.533 476.773 394.031C478.247 394.528 479.812 394.697 481.358 394.525C482.904 394.353 484.394 393.844 485.722 393.035L538.969 421.16L540.693 408.199L488.953 377.713C487.444 375.574 485.202 374.063 482.652 373.465C480.102 372.867 477.421 373.224 475.118 374.47C472.814 375.715 471.047 377.761 470.153 380.22C469.258 382.68 469.297 385.382 470.263 387.815H470.264Z" fill="#FEB8B8"/>
<path d="M541.221 390.055C540.354 391.345 539.213 392.43 537.881 393.232C536.548 394.034 535.056 394.534 533.509 394.698C531.961 394.861 530.397 394.684 528.926 394.178C527.455 393.672 526.113 392.85 524.995 391.77L466.876 407.572L467.382 391.117L525.195 376.114C527.136 374.357 529.655 373.371 532.274 373.345C534.893 373.319 537.431 374.254 539.406 375.973C541.382 377.692 542.658 380.075 542.992 382.671C543.326 385.266 542.696 387.895 541.221 390.057L541.221 390.055Z" fill="#FEB8B8"/>
<path d="M563.806 321.994L575.137 321.284C575.137 321.284 588.404 338.775 581.046 357.756C581.046 357.756 582.32 425.94 552.937 423.139C523.554 420.337 514.269 420.338 514.269 420.338L523.089 395.755L542.82 389.667C542.82 389.667 536.739 362.863 548.25 351.711L563.806 321.994Z" fill="#E6E6E6"/>
<path d="M481.983 321.395L480.382 313.192C480.382 313.192 456.763 312.635 452.093 348.398C452.093 348.398 430.854 401.917 451.672 408.809C472.489 415.7 495.389 408.809 495.389 408.809L493.665 385.205L470.761 380.536C470.761 380.536 482.594 365.24 476.151 351.971L481.983 321.395Z" fill="#E6E6E6"/>
<path d="M530.33 278.036C528.145 277.18 525.726 277.224 523.417 276.801C515.16 275.281 508.792 266.869 509.576 258.517C509.773 257.435 509.792 256.328 509.63 255.24C509.058 252.857 506.407 251.578 503.971 251.292C501.536 251.007 499.02 251.372 496.651 250.738C492.993 249.76 490.261 246.426 489.334 242.758C488.545 239.027 488.957 235.142 490.511 231.66L491.647 234.027C492.829 232.774 493.635 231.214 493.974 229.525C494.967 229.579 495.929 229.886 496.769 230.418C497.609 230.949 498.298 231.687 498.77 232.561C500.238 233.216 500.059 229.865 501.522 229.202C502.181 229.043 502.876 229.134 503.472 229.456C506.696 230.537 510.116 228.915 513.311 227.753C518.845 225.747 524.774 225.07 530.618 225.777C534.501 226.25 538.421 227.397 541.443 229.877C543.831 232.038 545.773 234.646 547.159 237.552C550.888 244.517 553.698 252.201 553.621 260.103C553.545 266.571 551.554 272.872 547.898 278.211C545.993 280.98 539.84 290.588 535.75 289.531C530.612 288.205 536.48 280.446 530.33 278.036Z" fill="#2F2E41"/>
</g>
<defs>
<clipPath id="clip0_205_1000">
<rect width="610" height="720" fill="white"/>
</clipPath>
</defs>
</svg>
